<svg viewBox="0 0 1707.2222900390625 400.0000305175781" xmlns="http://www.w3.org/2000/svg"><g><g><g><g><g><line x1="40" y1="377" x2="35" y2="377" style="visibility: inherit;" fill="rgb(0, 0, 0)" stroke="rgb(204, 204, 204)" stroke-width="1px"></line><line x1="40" y1="335.1111111111111" x2="35" y2="335.1111111111111" style="visibility: inherit;" fill="rgb(0, 0, 0)" stroke="rgb(204, 204, 204)" stroke-width="1px"></line><line x1="40" y1="293.2222222222222" x2="35" y2="293.2222222222222" style="visibility: inherit;" fill="rgb(0, 0, 0)" stroke="rgb(204, 204, 204)" stroke-width="1px"></line><line x1="40" y1="251.3333333333333" x2="35" y2="251.3333333333333" style="visibility: inherit;" fill="rgb(0, 0, 0)" stroke="rgb(204, 204, 204)" stroke-width="1px"></line><line x1="40" y1="209.44444444444437" x2="35" y2="209.44444444444437" style="visibility: inherit;" fill="rgb(0, 0, 0)" stroke="rgb(204, 204, 204)" stroke-width="1px"></line><line x1="40" y1="167.55555555555563" x2="35" y2="167.55555555555563" style="visibility: inherit;" fill="rgb(0, 0, 0)" stroke="rgb(204, 204, 204)" stroke-width="1px"></line><line x1="40" y1="125.66666666666673" x2="35" y2="125.66666666666673" style="visibility: inherit;" fill="rgb(0, 0, 0)" stroke="rgb(204, 204, 204)" stroke-width="1px"></line><line x1="40" y1="83.77777777777781" x2="35" y2="83.77777777777781" style="visibility: inherit;" fill="rgb(0, 0, 0)" stroke="rgb(204, 204, 204)" stroke-width="1px"></line><line x1="40" y1="41.88888888888891" x2="35" y2="41.88888888888891" style="visibility: inherit;" fill="rgb(0, 0, 0)" stroke="rgb(204, 204, 204)" stroke-width="1px"></line><line x1="40" y1="0" x2="35" y2="0" style="visibility: inherit;" fill="rgb(0, 0, 0)" stroke="rgb(204, 204, 204)" stroke-width="1px"></line></g><g transform="translate(30, 0)"><text x="0" y="377" dx="0em" dy="0.3em" style="text-anchor: end; visibility: hidden; font-family: Roboto, sans-serif; font-size: 12px; font-weight: 200;" fill="rgb(33, 33, 33)" stroke="none" stroke-width="1px">4.6</text><text x="0" y="335.1111111111111" dx="0em" dy="0.3em" style="text-anchor: end; visibility: inherit; font-family: Roboto, sans-serif; font-size: 12px; font-weight: 200;" fill="rgb(33, 33, 33)" stroke="none" stroke-width="1px">4.8</text><text x="0" y="293.2222222222222" dx="0em" dy="0.3em" style="text-anchor: end; visibility: inherit; font-family: Roboto, sans-serif; font-size: 12px; font-weight: 200;" fill="rgb(33, 33, 33)" stroke="none" stroke-width="1px">5</text><text x="0" y="251.3333333333333" dx="0em" dy="0.3em" style="text-anchor: end; visibility: inherit; font-family: Roboto, sans-serif; font-size: 12px; font-weight: 200;" fill="rgb(33, 33, 33)" stroke="none" stroke-width="1px">5.2</text><text x="0" y="209.44444444444437" dx="0em" dy="0.3em" style="text-anchor: end; visibility: inherit; font-family: Roboto, sans-serif; font-size: 12px; font-weight: 200;" fill="rgb(33, 33, 33)" stroke="none" stroke-width="1px">5.4</text><text x="0" y="167.55555555555563" dx="0em" dy="0.3em" style="text-anchor: end; visibility: inherit; font-family: Roboto, sans-serif; font-size: 12px; font-weight: 200;" fill="rgb(33, 33, 33)" stroke="none" stroke-width="1px">5.6</text><text x="0" y="125.66666666666673" dx="0em" dy="0.3em" style="text-anchor: end; visibility: inherit; font-family: Roboto, sans-serif; font-size: 12px; font-weight: 200;" fill="rgb(33, 33, 33)" stroke="none" stroke-width="1px">5.8</text><text x="0" y="83.77777777777781" dx="0em" dy="0.3em" style="text-anchor: end; visibility: inherit; font-family: Roboto, sans-serif; font-size: 12px; font-weight: 200;" fill="rgb(33, 33, 33)" stroke="none" stroke-width="1px">6</text><text x="0" y="41.88888888888891" dx="0em" dy="0.3em" style="text-anchor: end; visibility: inherit; font-family: Roboto, sans-serif; font-size: 12px; font-weight: 200;" fill="rgb(33, 33, 33)" stroke="none" stroke-width="1px">6.2</text><text x="0" y="0" dx="0em" dy="0.3em" style="text-anchor: end; visibility: hidden; font-family: Roboto, sans-serif; font-size: 12px; font-weight: 200;" fill="rgb(33, 33, 33)" stroke="none" stroke-width="1px">6.4</text></g><line x1="40" y1="0" x2="40" y2="377" fill="rgb(0, 0, 0)" stroke="rgb(204, 204, 204)" stroke-width="1px"></line></g></g><g transform="translate(40, 0)" clip-path="url(#clip_0)"><clipPath id="clip_0"><rect width="1667" height="376"></rect></clipPath><g><g><g><line x1="0" y1="0" x2="0" y2="377" fill="rgb(0, 0, 0)" stroke="rgb(66, 66, 66)" stroke-width="1px" opacity="0.25"></line><line x1="166.722" y1="0" x2="166.722" y2="377" fill="rgb(0, 0, 0)" stroke="rgb(66, 66, 66)" stroke-width="1px" opacity="0.25"></line><line x1="333.444" y1="0" x2="333.444" y2="377" fill="rgb(0, 0, 0)" stroke="rgb(66, 66, 66)" stroke-width="1px" opacity="0.25"></line><line x1="500.166" y1="0" x2="500.166" y2="377" fill="rgb(0, 0, 0)" stroke="rgb(66, 66, 66)" stroke-width="1px" opacity="0.25"></line><line x1="666.888" y1="0" x2="666.888" y2="377" fill="rgb(0, 0, 0)" stroke="rgb(66, 66, 66)" stroke-width="1px" opacity="0.25"></line><line x1="833.61" y1="0" x2="833.61" y2="377" fill="rgb(0, 0, 0)" stroke="rgb(66, 66, 66)" stroke-width="1px" opacity="0.25"></line><line x1="1000.332" y1="0" x2="1000.332" y2="377" fill="rgb(0, 0, 0)" stroke="rgb(66, 66, 66)" stroke-width="1px" opacity="0.25"></line><line x1="1167.0539999999999" y1="0" x2="1167.0539999999999" y2="377" fill="rgb(0, 0, 0)" stroke="rgb(66, 66, 66)" stroke-width="1px" opacity="0.25"></line><line x1="1333.776" y1="0" x2="1333.776" y2="377" fill="rgb(0, 0, 0)" stroke="rgb(66, 66, 66)" stroke-width="1px" opacity="0.25"></line><line x1="1500.498" y1="0" x2="1500.498" y2="377" fill="rgb(0, 0, 0)" stroke="rgb(66, 66, 66)" stroke-width="1px" opacity="0.25"></line><line x1="1667.22" y1="0" x2="1667.22" y2="377" fill="rgb(0, 0, 0)" stroke="rgb(66, 66, 66)" stroke-width="1px" opacity="0.25"></line></g><g><line x1="0" y1="377" x2="1667.22" y2="377" fill="rgb(0, 0, 0)" stroke="rgb(66, 66, 66)" stroke-width="1px" opacity="0.25"></line><line x1="0" y1="335.1111111111111" x2="1667.22" y2="335.1111111111111" fill="rgb(0, 0, 0)" stroke="rgb(66, 66, 66)" stroke-width="1px" opacity="0.25"></line><line x1="0" y1="293.2222222222222" x2="1667.22" y2="293.2222222222222" fill="rgb(0, 0, 0)" stroke="rgb(66, 66, 66)" stroke-width="1px" opacity="0.25"></line><line x1="0" y1="251.3333333333333" x2="1667.22" y2="251.3333333333333" fill="rgb(0, 0, 0)" stroke="rgb(66, 66, 66)" stroke-width="1px" opacity="0.25"></line><line x1="0" y1="209.44444444444437" x2="1667.22" y2="209.44444444444437" fill="rgb(0, 0, 0)" stroke="rgb(66, 66, 66)" stroke-width="1px" opacity="0.25"></line><line x1="0" y1="167.55555555555563" x2="1667.22" y2="167.55555555555563" fill="rgb(0, 0, 0)" stroke="rgb(66, 66, 66)" stroke-width="1px" opacity="0.25"></line><line x1="0" y1="125.66666666666673" x2="1667.22" y2="125.66666666666673" fill="rgb(0, 0, 0)" stroke="rgb(66, 66, 66)" stroke-width="1px" opacity="0.25"></line><line x1="0" y1="83.77777777777781" x2="1667.22" y2="83.77777777777781" fill="rgb(0, 0, 0)" stroke="rgb(66, 66, 66)" stroke-width="1px" opacity="0.25"></line><line x1="0" y1="41.88888888888891" x2="1667.22" y2="41.88888888888891" fill="rgb(0, 0, 0)" stroke="rgb(66, 66, 66)" stroke-width="1px" opacity="0.25"></line><line x1="0" y1="0" x2="1667.22" y2="0" fill="rgb(0, 0, 0)" stroke="rgb(66, 66, 66)" stroke-width="1px" opacity="0.25"></line></g></g></g><g><g><line x1="0" y1="1340.4444444444441" x2="1667.22" y2="1340.4444444444441" fill="rgb(0, 0, 0)" stroke="rgb(153, 153, 153)" stroke-width="1.5px"></line></g></g><g><g><line x1="166.722" y1="0" x2="166.722" y2="377" fill="rgb(0, 0, 0)" stroke="rgb(153, 153, 153)" stroke-width="1.5px"></line></g></g><g><g><g><g><g><path stroke="rgb(51, 187, 238)" stroke-width="2px" d="M170.0897844,32.13423903783169L173.4242244,141.8631743140751L176.75866440000001,-119.3839625892537L200.09974440000002,-18.02950583975309L203.43418440000002,10.423716490000476L206.76862440000002,-29.525187557178096L210.1030644,0.331317903193858L213.4375044,3.145352909701311L216.7719444,27.666940926689747L220.1063844,35.299643607851664L223.4408244,18.329161230896297L226.7752644,46.33414885043424L230.1097044,40.01725982334354L233.4441444,51.09735291619909L236.77858440000003,58.07386675524858L240.11302440000003,42.60150238053952L243.44746440000003,57.1994398742258L246.78190440000003,45.33301550341801L250.11634439999997,55.466953525820216L253.45078439999997,69.63437402864746L256.7852244,89.60193278485934L260.1196644,88.54196682773545L263.4541044,83.69832485008816L266.7885444,86.87078198842401L270.1229844,101.73941059451207L273.4574244,87.08411799439763L276.7918644,101.91758007721734L280.1263044,116.12913602880636L283.4607444,117.83895893513146L286.79518440000004,128.54978447474755L290.1296244,136.91768013999814L293.46406440000004,139.01582131137033L296.7985044,138.3055497155205L300.13294440000004,143.44137343242633L303.46738439999996,146.8999861694951L306.8018244,155.3606882668094L310.1362644,160.62251280967027L313.4707044,158.44314341550287L316.8051444,162.33862884335161L320.1395844,162.5413256171222L323.4740244,162.855927519692L326.8084644,161.06656903403646L330.1429044,165.55309668403177L333.4773444,170.18932244271704L336.8117844,175.1086662173563L340.1462244,170.50598973137176L343.4806644,178.8949732570768L346.8151044,171.3775799901005L350.1495444,170.57958789223196L353.4839844,172.78764964569066L356.81842439999997,174.55363638582463L360.1528644,178.83787790209436L363.48730439999997,183.92340279000987L366.8217444,189.50425341150358L370.1561844,192.9747353568481L373.4906244,194.14010223490553L376.82506440000003,194.406290129789L380.1595044,196.27869438980062L383.49394440000003,202.71666691072772L386.8283844,200.8340356324848L390.16282440000003,197.72464264656213L393.4972644,205.91083641407985L396.83170440000004,205.89626360193182L400.1661444,207.38607902766776L403.50058440000004,211.85512533499403L406.8350244,216.06202902406176L410.1694644,218.7417065170977L413.5039044,222.42894201368205L416.83834440000004,221.75841979762805L420.17278440000007,223.0947757880075L423.50722440000004,229.9472775368205L426.84166440000007,234.1737942412938L430.17610440000004,235.1317706278579L433.51054439999996,237.94934313605881L436.8449844,239.24041786328561L440.17942439999996,241.66130350811858L443.5138644,241.67774631740923L446.84830439999996,237.45536144938586L450.1827444,238.23376232355005L453.51718439999996,240.77850717240054L456.8516244,243.00747012016777L460.18606439999996,244.93697321399847L463.5205044,244.17614671491606L466.85494439999997,245.29320590336212L470.1893844,240.66867901795953L473.5238244,241.74883832110373L476.8582644,243.73335352722995L480.1927044,241.31376819266373L483.5271444,235.48059802249338L486.8615844,230.1137645224563L490.1960244,231.1243731456427L493.5304644,222.33993665845182L496.8649044,225.0414706818052L500.19934440000003,222.84103157437636L503.5337844,225.45093789006577L506.86822440000003,230.1672134047193L510.20266440000006,231.9629474813092L513.5371044000001,234.16244525418898L516.8715444000001,234.34889002559407L520.2059844,236.1459065404399L523.5404244,238.9592560186217L526.8748644000001,239.94315906757106L530.2093044000001,243.04614873989735L533.5437444,246.8187688165833L536.8781844,249.51381706296567L540.2126244,252.2560581209204L543.5470644,256.546817966059L546.8815043999999,258.0027856507457L550.2159444,261.1707395072828L553.5503844,261.47197251819756L556.8848244,264.7915434470396L560.2192643999999,267.7153461947709L563.5537044,269.6243963205905L566.8881444,266.89650679972766L570.2225844,267.5223251153898L573.5570244,267.2846581784259L576.8914644,264.43234621827776L580.2259044,267.28515538914274L583.5603444,268.56290973798167L586.8947844,271.3132156037687L590.2292244,271.0164002580455L593.5636644,271.94089798701344L596.8981044,273.7223702473722L600.2325444,275.32355194060665L603.5669844,275.74360910085L606.9014244,278.1566337930788L610.2358644000001,276.440575444968L613.5703044,274.25354224491326L616.9047444,276.49727367447025L620.2391844,276.88143368742544L623.5736244000001,280.5356596308659L626.9080644000001,282.4506660394181L630.2425044,283.4076488534137L633.5769444,284.4734777871919L636.9113844000001,287.77212334526325L640.2458244,287.8781988702392L643.5802643999999,291.19634144263904L646.9147044,294.30068672078784L650.2491444,294.06198057801157L653.5835844,295.79140876305183L656.9180244,295.9359200725955L660.2524644,296.80278761110395L663.5869044,298.87655916061834L666.9213444,301.5253065737974L670.2557844,302.3045660619073L673.5902244,300.0257906794227L676.9246644,300.82170098654933L680.2591044,299.3212326258301L683.5935444,300.0204327474069L686.9279844,298.4271381406641L690.2624244,300.81709954269604L693.5968644,297.2970914224862L696.9313044,299.2323170534463L700.2657444,302.161900659509L703.6001844,302.3132676609257L706.9346244000001,301.75861702512924L710.2690644,303.01086089191L713.6035044,303.41163971234164L716.9379444,303.1183293125857L720.2723844000001,303.82125086703945L723.6068244,298.57596297097876L726.9412644,299.3483130856293L730.2757044,299.33718654370267L733.6101444000001,299.05073664920326L736.9445844,297.2973523433048L740.2790244,297.722377603743L743.6134644000001,296.54193393090156L746.9479044,296.423344913766L750.2823443999999,295.84628740682825L753.6167844,294.42518664926723L756.9512244,294.0837006034638L760.2856644,294.9171101193842L763.6201044,295.64146409296757L766.9545444,296.23766448249864L770.2889844,296.5993768265123L773.6234244,298.3034776668348L776.9578644,298.46337783625245L780.2923044,299.19362507548755L783.6267444,300.18839548731324L786.9611844,302.2454039688884L790.2956244,302.32572820867375L793.6300644,304.06456923923446L796.9645044,302.9381238145402L800.2989444,304.31816489876076L803.6333844000001,303.8618915508632L806.9678244,304.3269518171778L810.3022644,295.8331599380583L813.6367044,295.52444394536116L816.9711444000001,296.01354001449226L820.3055844,298.0961735431931L823.6400244,295.6269975873562L826.9744644,295.5976857351091L830.3089044000001,294.89078629746876L833.6433444,296.25945411364063L836.9777844,297.1433298975715L840.3122244000001,295.2677230182452L843.6466644000001,295.35612583318897L846.9811044,294.4456049150603L850.3155444,295.0866428745987L853.6499844000001,295.0445925516641L856.9844244000001,296.09340616105436L860.3188644,297.1834694819784L863.6533044,298.86808114333576L866.9877444000001,299.75754779302036L870.3221844000001,299.62973659764094L873.6566244,301.4237318880803L876.9910644000001,303.1116158918026L880.3255044000001,301.60846667480274L883.6599444000001,302.54103991399137L886.9943844000001,302.54701174114666L890.3288244000001,304.2942379363059L893.6632644000001,302.75205756560837L896.9977044000001,305.09913544113584L900.3321444,306.3533177303065L903.6665843999999,307.58132954966015L907.0010243999999,308.11554535833096L910.3354644,310.1079562519779L913.6699044,309.93304969736937L917.0043443999999,310.7215113680142L920.3387843999999,311.5569162484693L923.6732244,311.67716999389495L927.0076644,309.61718597691925L930.3421043999999,309.2090570984578L933.6765443999999,308.09718678444773L937.0109844,309.68987219276863L940.3454244,310.86124304899295L943.6798643999999,311.57304027702946L947.0143044,311.5159541387138L950.3487444,311.2344323838985L953.6831844,308.89146031654224L957.0176243999999,309.2490818304546L960.3520644,308.48115066269025L963.6865044,309.8478336615812L967.0209444,310.5650039136796L970.3553843999999,311.85361284433645L973.6898244,312.70172071842507L977.0242644,313.11007824678154L980.3587044,314.0798781424971L983.6931444,314.7271272255446L987.0275844,315.0222808494814L990.3620244,314.66859067466083L993.6964644,315.25443085267534L997.0309044,315.50584006170953L1000.3653444,315.904216713695L1003.6997844,316.0973936232068L1007.0342244,317.0761869464102L1010.3686644000001,318.28864099668056L1013.7031044,318.5689652290205L1017.0375444,319.38330270009465L1020.3719844000001,320.78807466534744L1023.7064244000001,321.8154375285995L1027.0408644000001,322.63085222090626L1030.3753044,323.44387078824997L1033.7097444,322.4145345796347L1037.0441844,321.8352944952832L1040.3786244,322.0134338983196L1043.7130644000001,323.4578773449391L1047.0475044,324.02547795081364L1050.3819444,325.0304582335823L1053.7163844000002,323.73614394956115L1057.0508244,321.45729925718496L1060.3852644,322.83530327426405L1063.7197044000002,323.2438758268774L1067.0541444,323.4917006789535L1070.3885844000001,324.50179632962755L1073.7230244,324.62870033278944L1077.0574644,325.0160029696736L1080.3919044000002,325.463911465378L1083.7263444,325.0465145149886L1087.0607844,325.71743767523213L1090.3952244000002,326.91040741450956L1093.7296644,327.79272871469345L1097.0641044000001,328.06049832486167L1100.3985444,328.664695149326L1103.7329844,329.78489187195174L1107.0674244000002,329.66452513659135L1110.4018644,328.6682875310447L1113.7363043999999,328.70877331854405L1117.0707444,328.76731588252517L1120.4051843999998,328.9660213364062L1123.7396244,330.0746618655463L1127.0740644,330.0802258326892L1130.4085043999999,331.31203514546684L1133.7429444,331.41886025147875L1137.0773844,329.2376080681239L1140.4118244,328.9047169481321L1143.7462644,330.13608788208364L1147.0807044,330.3404051399188L1150.4151444,329.02929934549405L1153.7495844,328.6588946819404L1157.0840243999999,329.0795965422035L1160.4184644,329.6441955959854L1163.7529044,330.70480799015735L1167.0873444,331.77845945691934L1170.4217844,332.45288252936405L1173.7562244,332.44218524852397L1177.0906644,332.5219750578576L1180.4251044,333.08030680504856L1183.7595444,333.9445273138499L1187.0939844,330.1442251533656L1190.4284244,330.74580143660626L1193.7628644,332.3165500092854L1197.0973044,331.50726845366165L1200.4317444,331.5458857437085L1203.7661844,332.40568388037275L1207.1006244,332.36628824230877L1210.4350644,333.14101300611117L1213.7695044,332.81093819827953L1217.1039444,333.29660557706677L1220.4383844000001,333.0964289175339L1223.7728244,334.1560641468372L1227.1072644,333.8974846567418L1230.4417044,333.45639316768705L1233.7761444,331.75291901295793L1237.1105844,331.79065708062774L1240.4450244,332.24335761171875L1243.7794644,331.7287083529502L1247.1139044000001,332.43195066596735L1250.4483444,332.91099752571176L1253.7827844,333.4225532414857L1257.1172244000002,332.20923420399635L1260.4516644,332.42496914090464L1263.7861044,333.11041293867396L1267.1205444,333.41246900937557L1270.4549844,333.9998264341351L1273.7894244000001,334.4266662547077L1277.1238644,333.95216132119486L1280.4583044,331.6036814276218L1283.7927444000002,332.1690131917591L1287.1271844,332.6103952401464L1290.4616244000001,332.6118507025525L1293.7960644000002,331.120677118778L1297.1305044,331.01952950394696L1300.4649444000001,331.90378216459146L1303.7993844,331.3950305749603L1307.1338244,332.30621143394313L1310.4682644000002,332.04662210136246L1313.8027044,330.9235355831095L1317.1371444,331.60421051358935L1320.4715844,332.81862267573007L1323.8060243999998,332.80996548192564L1327.1404644,332.0683736287946L1330.4749044,332.296346228923L1333.8093443999999,332.69808471889866L1337.1437844,333.52047305128855L1340.4782244,334.35471427173087L1343.8126644,335.1318642543254L1347.1471044,333.89457775906664L1350.4815443999998,332.266512944518L1353.8159844,332.7011868221439L1357.1504244,332.9166900344917L1360.4848643999999,332.186354562811L1363.8193044,332.80590966054837L1367.1537444,333.283404679313L1370.4881844,333.284860602626L1373.8226244,332.63367635843565L1377.1570644,333.08393768716576L1380.4915044,333.65362387820574L1383.8259444,332.73020360289553L1387.1603843999999,332.907584701935L1390.4948244,332.93910165784047L1393.8292644,333.3544423901451L1397.1637044,333.28925308046723L1400.4981444,333.37385096233857L1403.8325844,333.3279983947096L1407.1670244,333.11645873609456L1410.5014644,333.3996150110803L1413.8359044000001,332.23426736831584L1417.1703444,328.62927321055656L1420.5047844,329.2894636098912L1423.8392244,329.5046881452708L1427.1736644,329.6005728256013L1430.5081044,330.1464196847949L1433.8425444,330.6632599895823L1437.1769844,330.609151635396L1440.5114244000001,331.5677844866401L1443.8458644,329.8844418182003L1447.1803044,330.5057777630237L1450.5147444000002,330.34068624317916L1453.8491844,331.2781768802012L1457.1836244,331.5897748441642L1460.5180644,332.0754514441003L1463.8525044,331.03194019444675L1467.1869444000001,331.6398189716189L1470.5213844,332.32130038157413L1473.8558244,331.1928472272564L1477.1902644000002,331.4884131985035L1480.5247044,331.9761800143144L1483.8591444,332.0915394993202L1487.1935844000002,331.4195703771437L1490.5280244,329.4080797343284L1493.8624644000001,328.39698656944705L1497.1969044,328.76266921065553L1500.5313444,328.26917427788766" style="fill: none;" fill="none"></path></g></g></g></g><g opacity="0.2"><g><g><g><path stroke="rgb(51, 187, 238)" stroke-width="2px" d="M170.0897844,32.13423903783169L173.4242244,251.48238065507672L176.75866440000001,-641.0947562323673L180.09310440000002,-29.46423064337832L183.42754440000002,34.0996982256572L186.7619844,83.18274699317088L190.0964244,-287.58095486958797L193.4308644,186.39821704228717L196.7653044,359.2454718483818L200.09974440000002,-169.8740184042187L203.43418440000002,293.39569796456226L206.76862440000002,-466.3352734247841L210.1030644,356.2890936533609L213.4375044,39.4727523061965L216.7719444,368.40553034676435L220.1063844,148.87851995891998L223.4408244,-250.90207084019966L230.1097044,-72.61265129513201L233.4441444,259.52648178736365L236.77858440000003,196.14831278059216L240.11302440000003,-278.7677479849919L243.44746440000003,374.68651072184235L246.78190440000003,-224.3435039520262L250.11634439999997,295.6644650565253L253.45078439999997,419.2520993550618L256.7852244,601.8079036076862L260.1196644,60.3201022677952L263.4541044,-49.9747160805595L266.7885444,177.5048138300578L270.1229844,540.9507256348926L280.1263044,577.2221863534713L283.4607444,174.96669493781195L286.79518440000004,496.75670666164814L290.1296244,432.6533750957912L293.46406440000004,215.18959750069507L296.7985044,111.83510716756187L300.13294440000004,339.7828318277994L303.46738439999996,282.44495434231226L306.8018244,495.0609987576801L310.1362644,376.93200789557557L313.4707044,66.76337284511996L316.8051444,329.9381583531697L320.1395844,171.45593341191608L323.4740244,176.99257601632013L326.8084644,78.95451296700377L330.1429044,375.7119850582546L333.4773444,391.77482011583106L346.8151044,-216.4709810150993L350.1495444,128.65236695607507L353.4839844,290.8910358217027L356.81842439999997,270.68136151631666L360.1528644,416.0881894429524L370.1561844,394.9757821294996L373.4906244,263.0672045813666L376.82506440000003,210.4004885355631L380.1595044,310.5422320895724L383.49394440000003,601.632829931047L386.8283844,82.41643762588505L390.16282440000003,-0.7670284377203582L393.4972644,736.1413464546202L396.83170440000004,204.93874910142688L400.1661444,306.66564348008893L403.50058440000004,513.8339303864371L413.5039044,481.8727476331922L416.83834440000004,173.9560014936659L420.17278440000007,319.6051162083943L423.50722440000004,731.179111295276L426.84166440000007,547.2389466497632L430.17610440000004,306.97674131393427L433.51054439999996,451.86114459567585L436.8449844,338.45135307312006L440.17942439999996,429.92350408766L443.5138644,242.97158283657495L446.84830439999996,-98.67765622668782L450.1827444,300.91587638854975L453.51718439999996,448.03588962554926L460.18606439999996,405.6249156528048L463.5205044,180.11823537614612L466.85494439999997,340.3660778469509L470.1893844,-157.15096590254024L473.5238244,335.6544686953226L476.8582644,418.0708264244926L480.1927044,26.551256338755344L483.5271444,-287.5814542240565L486.8615844,-256.01196511586494L490.1960244,323.5829739040798L493.5304644,-589.3029092152909L496.8649044,477.10041697820014L500.19934440000003,15.542387856377584L503.5337844,473.6860308647155L513.5371044000001,449.32082854376887L516.8715444000001,252.7552351951599L520.2059844,415.17017618815095L523.5404244,521.7639789581298L526.8748644000001,339.7314981884426L530.2093044000001,560.5393527878654L550.2159444,602.3123015562692L553.5503844,294.17878564198804L556.8848244,628.1746185090805L566.8881444,-38.98941712909268L570.2225844,338.25211064020783L573.5570244,240.2130488819546L576.8914644,-62.98669507768412L586.8947844,594.3111449082691L590.2292244,235.89652898576526L593.5636644,382.14377048280494L600.2325444,469.0051819483438L603.5669844,326.9232558144463L606.9014244,574.2754956351384L610.2358644000001,64.34749592675108L613.5703044,2.0366471608480516L616.9047444,557.7335299650827L620.2391844,325.3688652250501L623.5736244000001,744.9495597945318L636.9113844000001,718.4827243222129L640.2458244,301.8208065562777L643.5802643999999,730.2129602697158L646.9147044,707.7207366890376L650.2491444,262.06569925944007L653.5835844,529.1006446149612L656.9180244,315.5561504364013L660.2524644,415.24527910020606L676.9246644,412.99408928553254L680.2591044,86.56377622816301L683.5935444,399.7621945805019L686.9279844,69.77727667490647L690.2624244,645.839282830556L700.2657444,732.5892883141834L703.6001844,324.6817534764607L706.9346244000001,219.3221552107069L710.2690644,490.193890624576L713.6035044,363.659765349494L716.9379444,258.7767509884304L720.2723844000001,410.682277838389L726.9412644,418.0718251334295L730.2757044,297.61744038263953L733.6101444000001,254.53443516625293L736.9445844,23.33012040456143L740.2790244,364.49099079767853L743.6134644000001,110.10833941565623L746.9479044,277.5942250357733L750.2823443999999,203.73840083016285L753.6167844,66.40124098459886L756.9512244,239.0039119720459L760.2856644,430.0395540661281L766.9545444,393.8982750574747L770.2889844,356.15177117453675L773.6234244,580.2888220151264L776.9578644,325.05606958601203L780.2923044,421.24771955278175L786.9611844,649.4759815533954L790.2956244,315.95143943362757L793.6300644,600.4730292426214L796.9645044,109.98729589250358L800.2989444,541.8501129680208L803.6333844000001,224.9510785208808L806.9678244,385.14159509870734L810.3022644,-1187.1628364986839L813.6367044,241.3688547346327L816.9711444000001,382.2145789464314L823.6400244,-143.61546368069108L826.9744644,290.35932318369544L830.3089044000001,167.97992695702447L833.6433444,543.1002968152362L840.3122244000001,-46.06956439548062L843.6466644000001,311.51657252841517L846.9811044,127.2549734115601L850.3155444,413.3172714975144L853.6499844000001,287.2547365824381L856.9844244000001,491.24043771955695L866.9877444000001,467.42282750871436L870.3221844000001,275.4336181216769L873.6566244,642.5000995000202L876.9910644000001,625.3792821301353L880.3255044000001,13.397560543484223L883.6599444000001,482.1036491394041L886.9943844000001,303.7016750971476L890.3288244000001,643.531166606479L893.6632644000001,2.0850845442878665L896.9977044000001,764.5778856277462L910.3354644,706.5467543337078L913.6699044,274.9911900626288L917.0043443999999,468.86616166432685L920.3387843999999,479.7841476334465L923.6732244,335.9888364473978L927.0076644,-108.49067062801775L930.3421043999999,226.04766093360053L933.6765443999999,80.65541415744363L937.0109844,636.7514309883117L943.6798643999999,458.87148210737433L947.0143044,299.657403257158L950.3487444,252.5309251679314L953.6831844,-181.52206060621455L957.0176243999999,384.38617165883375L960.3520644,146.53125434451636L963.6865044,599.1462943553923L987.0275844,379.12197685241694L990.3620244,237.57975302802188L993.6964644,443.39928351508235L997.0309044,370.6944713592529L1000.3653444,403.66524897681336L1003.6997844,358.8040424982706L1007.0342244,534.2246706220837L1030.3753044,508.22428215874555L1033.7097444,87.67573875851103L1037.0441844,189.29377386305066L1040.3786244,362.91243145200934L1043.7130644000001,656.1987907621594L1050.3819444,558.0811306105718L1053.7163844000002,22.59726778666184L1057.0508244,-210.49161073896602L1070.3885844000001,563.3761855231389L1073.7230244,354.7366006109449L1077.0574644,417.198354297214L1080.3919044000002,432.4119871457417L1083.7263444,225.06642940309314L1087.0607844,486.9348037507798L1103.7329844,603.2000539302825L1107.0674244000002,300.1948085361056L1110.4018644,84.00538354449807L1113.7363043999999,338.6820548375447L1117.0707444,343.23277197943787L1120.4051843999998,378.2141504287719L1123.7396244,605.6783002217609L1127.0740644,331.46758121914326L1130.4085043999999,639.3827294243705L1133.7429444,358.2154034508598L1137.0773844,-219.55050002204035L1140.4118244,244.9027863078647L1143.7462644,641.780329969194L1150.4151444,-4.749779807196677L1153.7495844,234.08616929584076L1157.0840243999999,436.807205306159L1170.4217844,507.15116940604304L1173.7562244,329.6633136537339L1177.0906644,353.30824708938593L1180.4251044,478.9452321264478L1193.7628644,747.3050647576648L1197.0973044,117.10209835900206L1200.4317444,341.8052174250284L1203.7661844,561.456017785602L1207.1006244,321.84242396884486L1210.4350644,540.6623484293618L1213.7695044,244.15425395965576L1217.1039444,464.0995236502752L1220.4383844000001,279.03755919138587L1223.7728244,621.0891281498801L1227.1072644,263.6897997326321L1230.4417044,213.37344529893664L1233.7761444,-133.2396767934162L1237.1105844,342.11931138568445L1240.4450244,456.47278298272016L1243.7794644,190.12649737464056L1247.1139044000001,526.4332927862802L1273.7894244000001,454.63835440741633L1277.1238644,199.9760645230611L1280.4583044,-333.1708193884953L1287.1271844,458.1822730700174L1290.4616244000001,333.02696535322394L1293.7960644000002,-95.24359554714617L1297.1305044,302.0267403390672L1300.4649444000001,585.9944461716544L1303.7993844,184.8428277439541L1307.1338244,595.4309473037719L1310.4682644000002,256.89977741241455L1313.8027044,5.011601342095357L1317.1371444,529.613831202189L1320.4715844,686.953333377838L1323.8060243999998,330.2793173260158L1327.1404644,114.76412073771161L1330.4749044,399.258745405409L1357.1504244,397.4281119240654L1360.4848643999999,113.04763968785606L1363.8193044,519.1377739376491L1367.1537444,477.22395727369513L1370.4881844,333.72476328743824L1373.8226244,135.42660967508954L1377.1570644,469.756211068895L1380.4915044,506.9723006354437L1383.8259444,51.15155474344895L1387.1603843999999,387.11953814824415L1390.4948244,342.59329864713874L1393.8292644,460.86830075581855L1397.1637044,313.2303570641411L1400.4981444,359.4632902675204L1403.8325844,319.15569718678785L1407.1670244,267.5869617462158L1410.5014644,421.309240023295L1423.8392244,396.91587411032776L1427.1736644,359.6986859639485L1430.5081044,501.86120790905414L1433.8425444,493.60677867465535L1437.1769844,313.5134910477532L1440.5114244000001,635.1048595640393L1447.1803044,528.0902507834962L1450.5147444000002,277.7292504840426L1453.8491844,630.6758850415546L1480.5247044,490.39253383212605L1483.8591444,369.6356401443481L1487.1935844000002,112.27254168192547L1490.5280244,-327.94607358508614L1497.1969044,448.75895489586713L1500.5313444,166.00108506944446" style="fill: none;" fill="none"></path></g></g></g></g></g></g><g transform="translate(40, 377)" clip-path="url(#clip_1)"><clipPath id="clip_1"><rect width="1667" height="22"></rect></clipPath><g><g><line x1="0" y1="0" x2="0" y2="5" style="visibility: inherit;" fill="rgb(0, 0, 0)" stroke="rgb(204, 204, 204)" stroke-width="1px"></line><line x1="166.722" y1="0" x2="166.722" y2="5" style="visibility: inherit;" fill="rgb(0, 0, 0)" stroke="rgb(204, 204, 204)" stroke-width="1px"></line><line x1="333.444" y1="0" x2="333.444" y2="5" style="visibility: inherit;" fill="rgb(0, 0, 0)" stroke="rgb(204, 204, 204)" stroke-width="1px"></line><line x1="500.166" y1="0" x2="500.166" y2="5" style="visibility: inherit;" fill="rgb(0, 0, 0)" stroke="rgb(204, 204, 204)" stroke-width="1px"></line><line x1="666.888" y1="0" x2="666.888" y2="5" style="visibility: inherit;" fill="rgb(0, 0, 0)" stroke="rgb(204, 204, 204)" stroke-width="1px"></line><line x1="833.61" y1="0" x2="833.61" y2="5" style="visibility: inherit;" fill="rgb(0, 0, 0)" stroke="rgb(204, 204, 204)" stroke-width="1px"></line><line x1="1000.332" y1="0" x2="1000.332" y2="5" style="visibility: inherit;" fill="rgb(0, 0, 0)" stroke="rgb(204, 204, 204)" stroke-width="1px"></line><line x1="1167.0539999999999" y1="0" x2="1167.0539999999999" y2="5" style="visibility: inherit;" fill="rgb(0, 0, 0)" stroke="rgb(204, 204, 204)" stroke-width="1px"></line><line x1="1333.776" y1="0" x2="1333.776" y2="5" style="visibility: inherit;" fill="rgb(0, 0, 0)" stroke="rgb(204, 204, 204)" stroke-width="1px"></line><line x1="1500.498" y1="0" x2="1500.498" y2="5" style="visibility: inherit;" fill="rgb(0, 0, 0)" stroke="rgb(204, 204, 204)" stroke-width="1px"></line><line x1="1667.22" y1="0" x2="1667.22" y2="5" style="visibility: inherit;" fill="rgb(0, 0, 0)" stroke="rgb(204, 204, 204)" stroke-width="1px"></line></g><g transform="translate(0, 8)"><text x="0" y="0" dx="0em" dy="0.95em" style="text-anchor: middle; visibility: hidden; font-family: Roboto, sans-serif; font-size: 12px; font-weight: 200;" fill="rgb(33, 33, 33)" stroke="none" stroke-width="1px">-5k</text><text x="166.722" y="0" dx="0em" dy="0.95em" style="text-anchor: middle; visibility: inherit; font-family: Roboto, sans-serif; font-size: 12px; font-weight: 200;" fill="rgb(33, 33, 33)" stroke="none" stroke-width="1px">0</text><text x="333.444" y="0" dx="0em" dy="0.95em" style="text-anchor: middle; visibility: inherit; font-family: Roboto, sans-serif; font-size: 12px; font-weight: 200;" fill="rgb(33, 33, 33)" stroke="none" stroke-width="1px">5k</text><text x="500.166" y="0" dx="0em" dy="0.95em" style="text-anchor: middle; visibility: inherit; font-family: Roboto, sans-serif; font-size: 12px; font-weight: 200;" fill="rgb(33, 33, 33)" stroke="none" stroke-width="1px">10k</text><text x="666.888" y="0" dx="0em" dy="0.95em" style="text-anchor: middle; visibility: inherit; font-family: Roboto, sans-serif; font-size: 12px; font-weight: 200;" fill="rgb(33, 33, 33)" stroke="none" stroke-width="1px">15k</text><text x="833.61" y="0" dx="0em" dy="0.95em" style="text-anchor: middle; visibility: inherit; font-family: Roboto, sans-serif; font-size: 12px; font-weight: 200;" fill="rgb(33, 33, 33)" stroke="none" stroke-width="1px">20k</text><text x="1000.332" y="0" dx="0em" dy="0.95em" style="text-anchor: middle; visibility: inherit; font-family: Roboto, sans-serif; font-size: 12px; font-weight: 200;" fill="rgb(33, 33, 33)" stroke="none" stroke-width="1px">25k</text><text x="1167.0539999999999" y="0" dx="0em" dy="0.95em" style="text-anchor: middle; visibility: inherit; font-family: Roboto, sans-serif; font-size: 12px; font-weight: 200;" fill="rgb(33, 33, 33)" stroke="none" stroke-width="1px">30k</text><text x="1333.776" y="0" dx="0em" dy="0.95em" style="text-anchor: middle; visibility: inherit; font-family: Roboto, sans-serif; font-size: 12px; font-weight: 200;" fill="rgb(33, 33, 33)" stroke="none" stroke-width="1px">35k</text><text x="1500.498" y="0" dx="0em" dy="0.95em" style="text-anchor: middle; visibility: inherit; font-family: Roboto, sans-serif; font-size: 12px; font-weight: 200;" fill="rgb(33, 33, 33)" stroke="none" stroke-width="1px">40k</text><text x="1667.22" y="0" dx="0em" dy="0.95em" style="text-anchor: middle; visibility: hidden; font-family: Roboto, sans-serif; font-size: 12px; font-weight: 200;" fill="rgb(33, 33, 33)" stroke="none" stroke-width="1px">45k</text></g><line x1="0" y1="0" x2="1667.22" y2="0" fill="rgb(0, 0, 0)" stroke="rgb(204, 204, 204)" stroke-width="1px"></line></g></g></g></g></svg>