<?xml version="1.0" encoding="utf-8"?>
<svg viewBox="255.493 72.904 500.968 291.981" xmlns="http://www.w3.org/2000/svg">
  <defs>
    <view id="view-1">
      <title>View 1</title>
    </view>
  </defs>
  <g transform="matrix(0.337666, 0, 0, 0.654117, 210.390427, 93.423927)" style="">
    <g>
      <g transform="matrix(1, 0, 0, 1, 0, -1.390209)">
        <g>
          <g>
            <line x1="178.369" y1="377" x2="177.612" y2="377" style="visibility: inherit;" fill="rgb(0, 0, 0)" stroke="rgb(204, 204, 204)" stroke-width="1px"/>
            <line x1="179.783" y1="157.083" x2="180.441" y2="157.813" style="visibility: inherit;" fill="rgb(0, 0, 0)" stroke="rgb(204, 204, 204)" stroke-width="1px"/>
          </g>
          <g transform="translate(31.171875, 0)">
            <text x="0" y="377" dx="0em" dy="0.3em" style="text-anchor: end; visibility: hidden; font-family: Roboto, sans-serif; font-size: 12px; font-weight: 200; white-space: pre;" fill="rgb(33, 33, 33)" stroke="none" stroke-width="1px">3</text>
            <g>
              <text style="fill: rgb(33, 33, 33); font-family: Roboto, sans-serif; font-size: 12px; font-weight: 200; text-anchor: end; white-space: pre;" x="0" y="345.583" dx="136.833" dy="2.423">3.5</text>
            </g>
            <text style="fill: rgb(33, 33, 33); font-family: Roboto, sans-serif; font-size: 12px; font-weight: 200; text-anchor: end; white-space: pre;" x="0" y="314.167" dx="130.125" dy="3.6">4</text>
            <text style="fill: rgb(33, 33, 33); font-family: Roboto, sans-serif; font-size: 12px; font-weight: 200; text-anchor: end; white-space: pre;" x="0" y="282.75" dx="140.254" dy="0.657">4.5</text>
            <text style="fill: rgb(33, 33, 33); font-family: Roboto, sans-serif; font-size: 12px; font-weight: 200; text-anchor: end; white-space: pre;" x="0" y="251.333" dx="137.197" dy="3.6">5</text>
            <text style="fill: rgb(33, 33, 33); font-family: Roboto, sans-serif; font-size: 12px; font-weight: 200; text-anchor: end; white-space: pre;" x="0" y="219.917" dx="140.254" dy="1.245">5.5</text>
            <text style="fill: rgb(33, 33, 33); font-family: Roboto, sans-serif; font-size: 12px; font-weight: 200; text-anchor: end; white-space: pre;" x="0" y="188.5" dx="137.197" dy="2.87">6</text>
            <text style="fill: rgb(33, 33, 33); font-family: Roboto, sans-serif; font-size: 12px; font-weight: 200; text-anchor: end; white-space: pre;" x="0" y="157.083" dx="139.114" dy="0.657">6.5</text>
            <text style="fill: rgb(33, 33, 33); font-family: Roboto, sans-serif; font-size: 12px; font-weight: 200; text-anchor: end; white-space: pre;" x="0" y="125.667" dx="137.197" dy="2.14">7</text>
            <text style="fill: rgb(33, 33, 33); font-family: Roboto, sans-serif; font-size: 12px; font-weight: 200; text-anchor: end; white-space: pre;" x="0" y="94.25" dx="139.114" dy="-1.698">7.5</text>
            <text style="fill: rgb(33, 33, 33); font-family: Roboto, sans-serif; font-size: 12px; font-weight: 200; text-anchor: end; white-space: pre;" x="0" y="62.8333" dx="135.782" dy="-0.051">8</text>
            <text style="fill: rgb(33, 33, 33); font-family: Roboto, sans-serif; font-size: 12px; font-weight: 200; text-anchor: end; white-space: pre;" x="0" y="31.4167" dx="135.782" dy="3.6">8.5</text>
            <text x="0" y="0" dx="0em" dy="0.3em" style="text-anchor: end; visibility: hidden; font-family: Roboto, sans-serif; font-size: 12px; font-weight: 200; white-space: pre;" fill="rgb(33, 33, 33)" stroke="none" stroke-width="1px">9</text>
          </g>
          <line x1="178.368" y1="-1.46" x2="179.783" y2="379.921" fill="rgb(0, 0, 0)" stroke="rgb(204, 204, 204)" stroke-width="1px"/>
        </g>
      </g>
      <g transform="translate(41, 0)" clip-path="url(#clip_0)">
        <clipPath id="clip_0">
          <rect width="1666" height="376"/>
        </clipPath>
        <g>
          <g>
            <g>
              <line x1="138.611" y1="1.46" x2="137.197" y2="377" fill="rgb(0, 0, 0)" stroke="rgb(66, 66, 66)" stroke-width="1px" opacity="0.25"/>
              <line x1="138.83734375" y1="0" x2="138.83734375" y2="377" fill="rgb(0, 0, 0)" stroke="rgb(66, 66, 66)" stroke-width="1px" opacity="0.25"/>
              <line x1="277.6746875" y1="0" x2="277.6746875" y2="377" fill="rgb(0, 0, 0)" stroke="rgb(66, 66, 66)" stroke-width="1px" opacity="0.25"/>
              <line x1="416.51203125" y1="0" x2="416.51203125" y2="377" fill="rgb(0, 0, 0)" stroke="rgb(66, 66, 66)" stroke-width="1px" opacity="0.25"/>
              <line x1="555.349375" y1="0" x2="555.349375" y2="377" fill="rgb(0, 0, 0)" stroke="rgb(66, 66, 66)" stroke-width="1px" opacity="0.25"/>
              <line x1="694.1867187500001" y1="0" x2="694.1867187500001" y2="377" fill="rgb(0, 0, 0)" stroke="rgb(66, 66, 66)" stroke-width="1px" opacity="0.25"/>
              <line x1="833.0240625" y1="0" x2="833.0240625" y2="377" fill="rgb(0, 0, 0)" stroke="rgb(66, 66, 66)" stroke-width="1px" opacity="0.25"/>
              <line x1="971.8614062500001" y1="0" x2="971.8614062500001" y2="377" fill="rgb(0, 0, 0)" stroke="rgb(66, 66, 66)" stroke-width="1px" opacity="0.25"/>
              <line x1="1110.69875" y1="0" x2="1110.69875" y2="377" fill="rgb(0, 0, 0)" stroke="rgb(66, 66, 66)" stroke-width="1px" opacity="0.25"/>
              <line x1="1249.53609375" y1="0" x2="1249.53609375" y2="377" fill="rgb(0, 0, 0)" stroke="rgb(66, 66, 66)" stroke-width="1px" opacity="0.25"/>
              <line x1="1388.3734375000001" y1="0" x2="1388.3734375000001" y2="377" fill="rgb(0, 0, 0)" stroke="rgb(66, 66, 66)" stroke-width="1px" opacity="0.25"/>
              <line x1="1527.2107812499999" y1="0" x2="1527.2107812499999" y2="377" fill="rgb(0, 0, 0)" stroke="rgb(66, 66, 66)" stroke-width="1px" opacity="0.25"/>
              <path stroke="rgb(51, 187, 238)" stroke-width="2px" d="M170.0897844,32.13423903783169L173.4242244,141.8631743140751L176.75866440000001,-119.3839625892537L200.09974440000002,-18.02950583975309L203.43418440000002,10.423716490000476L206.76862440000002,-29.525187557178096L210.1030644,0.331317903193858L213.4375044,3.145352909701311L216.7719444,27.666940926689747L220.1063844,35.299643607851664L223.4408244,18.329161230896297L226.7752644,46.33414885043424L230.1097044,40.01725982334354L233.4441444,51.09735291619909L236.77858440000003,58.07386675524858L240.11302440000003,42.60150238053952L243.44746440000003,57.1994398742258L246.78190440000003,45.33301550341801L250.11634439999997,55.466953525820216L253.45078439999997,69.63437402864746L256.7852244,89.60193278485934L260.1196644,88.54196682773545L263.4541044,83.69832485008816L266.7885444,86.87078198842401L270.1229844,101.73941059451207L273.4574244,87.08411799439763L276.7918644,101.91758007721734L280.1263044,116.12913602880636L283.4607444,117.83895893513146L286.79518440000004,128.54978447474755L290.1296244,136.91768013999814L293.46406440000004,139.01582131137033L296.7985044,138.3055497155205L300.13294440000004,143.44137343242633L303.46738439999996,146.8999861694951L306.8018244,155.3606882668094L310.1362644,160.62251280967027L313.4707044,158.44314341550287L316.8051444,162.33862884335161L320.1395844,162.5413256171222L323.4740244,162.855927519692L326.8084644,161.06656903403646L330.1429044,165.55309668403177L333.4773444,170.18932244271704L336.8117844,175.1086662173563L340.1462244,170.50598973137176L343.4806644,178.8949732570768L346.8151044,171.3775799901005L350.1495444,170.57958789223196L353.4839844,172.78764964569066L356.81842439999997,174.55363638582463L360.1528644,178.83787790209436L363.48730439999997,183.92340279000987L366.8217444,189.50425341150358L370.1561844,192.9747353568481L373.4906244,194.14010223490553L376.82506440000003,194.406290129789L380.1595044,196.27869438980062L383.49394440000003,202.71666691072772L386.8283844,200.8340356324848L390.16282440000003,197.72464264656213L393.4972644,205.91083641407985L396.83170440000004,205.89626360193182L400.1661444,207.38607902766776L403.50058440000004,211.85512533499403L406.8350244,216.06202902406176L410.1694644,218.7417065170977L413.5039044,222.42894201368205L416.83834440000004,221.75841979762805L420.17278440000007,223.0947757880075L423.50722440000004,229.9472775368205L426.84166440000007,234.1737942412938L430.17610440000004,235.1317706278579L433.51054439999996,237.94934313605881L436.8449844,239.24041786328561L440.17942439999996,241.66130350811858L443.5138644,241.67774631740923L446.84830439999996,237.45536144938586L450.1827444,238.23376232355005L453.51718439999996,240.77850717240054L456.8516244,243.00747012016777L460.18606439999996,244.93697321399847L463.5205044,244.17614671491606L466.85494439999997,245.29320590336212L470.1893844,240.66867901795953L473.5238244,241.74883832110373L476.8582644,243.73335352722995L480.1927044,241.31376819266373L483.5271444,235.48059802249338L486.8615844,230.1137645224563L490.1960244,231.1243731456427L493.5304644,222.33993665845182L496.8649044,225.0414706818052L500.19934440000003,222.84103157437636L503.5337844,225.45093789006577L506.86822440000003,230.1672134047193L510.20266440000006,231.9629474813092L513.5371044000001,234.16244525418898L516.8715444000001,234.34889002559407L520.2059844,236.1459065404399L523.5404244,238.9592560186217L526.8748644000001,239.94315906757106L530.2093044000001,243.04614873989735L533.5437444,246.8187688165833L536.8781844,249.51381706296567L540.2126244,252.2560581209204L543.5470644,256.546817966059L546.8815043999999,258.0027856507457L550.2159444,261.1707395072828L553.5503844,261.47197251819756L556.8848244,264.7915434470396L560.2192643999999,267.7153461947709L563.5537044,269.6243963205905L566.8881444,266.89650679972766L570.2225844,267.5223251153898L573.5570244,267.2846581784259L576.8914644,264.43234621827776L580.2259044,267.28515538914274L583.5603444,268.56290973798167L586.8947844,271.3132156037687L590.2292244,271.0164002580455L593.5636644,271.94089798701344L596.8981044,273.7223702473722L600.2325444,275.32355194060665L603.5669844,275.74360910085L606.9014244,278.1566337930788L610.2358644000001,276.440575444968L613.5703044,274.25354224491326L616.9047444,276.49727367447025L620.2391844,276.88143368742544L623.5736244000001,280.5356596308659L626.9080644000001,282.4506660394181L630.2425044,283.4076488534137L633.5769444,284.4734777871919L636.9113844000001,287.77212334526325L640.2458244,287.8781988702392L643.5802643999999,291.19634144263904L646.9147044,294.30068672078784L650.2491444,294.06198057801157L653.5835844,295.79140876305183L656.9180244,295.9359200725955L660.2524644,296.80278761110395L663.5869044,298.87655916061834L666.9213444,301.5253065737974L670.2557844,302.3045660619073L673.5902244,300.0257906794227L676.9246644,300.82170098654933L680.2591044,299.3212326258301L683.5935444,300.0204327474069L686.9279844,298.4271381406641L690.2624244,300.81709954269604L693.5968644,297.2970914224862L696.9313044,299.2323170534463L700.2657444,302.161900659509L703.6001844,302.3132676609257L706.9346244000001,301.75861702512924L710.2690644,303.01086089191L713.6035044,303.41163971234164L716.9379444,303.1183293125857L720.2723844000001,303.82125086703945L723.6068244,298.57596297097876L726.9412644,299.3483130856293L730.2757044,299.33718654370267L733.6101444000001,299.05073664920326L736.9445844,297.2973523433048L740.2790244,297.722377603743L743.6134644000001,296.54193393090156L746.9479044,296.423344913766L750.2823443999999,295.84628740682825L753.6167844,294.42518664926723L756.9512244,294.0837006034638L760.2856644,294.9171101193842L763.6201044,295.64146409296757L766.9545444,296.23766448249864L770.2889844,296.5993768265123L773.6234244,298.3034776668348L776.9578644,298.46337783625245L780.2923044,299.19362507548755L783.6267444,300.18839548731324L786.9611844,302.2454039688884L790.2956244,302.32572820867375L793.6300644,304.06456923923446L796.9645044,302.9381238145402L800.2989444,304.31816489876076L803.6333844000001,303.8618915508632L806.9678244,304.3269518171778L810.3022644,295.8331599380583L813.6367044,295.52444394536116L816.9711444000001,296.01354001449226L820.3055844,298.0961735431931L823.6400244,295.6269975873562L826.9744644,295.5976857351091L830.3089044000001,294.89078629746876L833.6433444,296.25945411364063L836.9777844,297.1433298975715L840.3122244000001,295.2677230182452L843.6466644000001,295.35612583318897L846.9811044,294.4456049150603L850.3155444,295.0866428745987L853.6499844000001,295.0445925516641L856.9844244000001,296.09340616105436L860.3188644,297.1834694819784L863.6533044,298.86808114333576L866.9877444000001,299.75754779302036L870.3221844000001,299.62973659764094L873.6566244,301.4237318880803L876.9910644000001,303.1116158918026L880.3255044000001,301.60846667480274L883.6599444000001,302.54103991399137L886.9943844000001,302.54701174114666L890.3288244000001,304.2942379363059L893.6632644000001,302.75205756560837L896.9977044000001,305.09913544113584L900.3321444,306.3533177303065L903.6665843999999,307.58132954966015L907.0010243999999,308.11554535833096L910.3354644,310.1079562519779L913.6699044,309.93304969736937L917.0043443999999,310.7215113680142L920.3387843999999,311.5569162484693L923.6732244,311.67716999389495L927.0076644,309.61718597691925L930.3421043999999,309.2090570984578L933.6765443999999,308.09718678444773L937.0109844,309.68987219276863L940.3454244,310.86124304899295L943.6798643999999,311.57304027702946L947.0143044,311.5159541387138L950.3487444,311.2344323838985L953.6831844,308.89146031654224L957.0176243999999,309.2490818304546L960.3520644,308.48115066269025L963.6865044,309.8478336615812L967.0209444,310.5650039136796L970.3553843999999,311.85361284433645L973.6898244,312.70172071842507L977.0242644,313.11007824678154L980.3587044,314.0798781424971L983.6931444,314.7271272255446L987.0275844,315.0222808494814L990.3620244,314.66859067466083L993.6964644,315.25443085267534L997.0309044,315.50584006170953L1000.3653444,315.904216713695L1003.6997844,316.0973936232068L1007.0342244,317.0761869464102L1010.3686644000001,318.28864099668056L1013.7031044,318.5689652290205L1017.0375444,319.38330270009465L1020.3719844000001,320.78807466534744L1023.7064244000001,321.8154375285995L1027.0408644000001,322.63085222090626L1030.3753044,323.44387078824997L1033.7097444,322.4145345796347L1037.0441844,321.8352944952832L1040.3786244,322.0134338983196L1043.7130644000001,323.4578773449391L1047.0475044,324.02547795081364L1050.3819444,325.0304582335823L1053.7163844000002,323.73614394956115L1057.0508244,321.45729925718496L1060.3852644,322.83530327426405L1063.7197044000002,323.2438758268774L1067.0541444,323.4917006789535L1070.3885844000001,324.50179632962755L1073.7230244,324.62870033278944L1077.0574644,325.0160029696736L1080.3919044000002,325.463911465378L1083.7263444,325.0465145149886L1087.0607844,325.71743767523213L1090.3952244000002,326.91040741450956L1093.7296644,327.79272871469345L1097.0641044000001,328.06049832486167L1100.3985444,328.664695149326L1103.7329844,329.78489187195174L1107.0674244000002,329.66452513659135L1110.4018644,328.6682875310447L1113.7363043999999,328.70877331854405L1117.0707444,328.76731588252517L1120.4051843999998,328.9660213364062L1123.7396244,330.0746618655463L1127.0740644,330.0802258326892L1130.4085043999999,331.31203514546684L1133.7429444,331.41886025147875L1137.0773844,329.2376080681239L1140.4118244,328.9047169481321L1143.7462644,330.13608788208364L1147.0807044,330.3404051399188L1150.4151444,329.02929934549405L1153.7495844,328.6588946819404L1157.0840243999999,329.0795965422035L1160.4184644,329.6441955959854L1163.7529044,330.70480799015735L1167.0873444,331.77845945691934L1170.4217844,332.45288252936405L1173.7562244,332.44218524852397L1177.0906644,332.5219750578576L1180.4251044,333.08030680504856L1183.7595444,333.9445273138499L1187.0939844,330.1442251533656L1190.4284244,330.74580143660626L1193.7628644,332.3165500092854L1197.0973044,331.50726845366165L1200.4317444,331.5458857437085L1203.7661844,332.40568388037275L1207.1006244,332.36628824230877L1210.4350644,333.14101300611117L1213.7695044,332.81093819827953L1217.1039444,333.29660557706677L1220.4383844000001,333.0964289175339L1223.7728244,334.1560641468372L1227.1072644,333.8974846567418L1230.4417044,333.45639316768705L1233.7761444,331.75291901295793L1237.1105844,331.79065708062774L1240.4450244,332.24335761171875L1243.7794644,331.7287083529502L1247.1139044000001,332.43195066596735L1250.4483444,332.91099752571176L1253.7827844,333.4225532414857L1257.1172244000002,332.20923420399635L1260.4516644,332.42496914090464L1263.7861044,333.11041293867396L1267.1205444,333.41246900937557L1270.4549844,333.9998264341351L1273.7894244000001,334.4266662547077L1277.1238644,333.95216132119486L1280.4583044,331.6036814276218L1283.7927444000002,332.1690131917591L1287.1271844,332.6103952401464L1290.4616244000001,332.6118507025525L1293.7960644000002,331.120677118778L1297.1305044,331.01952950394696L1300.4649444000001,331.90378216459146L1303.7993844,331.3950305749603L1307.1338244,332.30621143394313L1310.4682644000002,332.04662210136246L1313.8027044,330.9235355831095L1317.1371444,331.60421051358935L1320.4715844,332.81862267573007L1323.8060243999998,332.80996548192564L1327.1404644,332.0683736287946L1330.4749044,332.296346228923L1333.8093443999999,332.69808471889866L1337.1437844,333.52047305128855L1340.4782244,334.35471427173087L1343.8126644,335.1318642543254L1347.1471044,333.89457775906664L1350.4815443999998,332.266512944518L1353.8159844,332.7011868221439L1357.1504244,332.9166900344917L1360.4848643999999,332.186354562811L1363.8193044,332.80590966054837L1367.1537444,333.283404679313L1370.4881844,333.284860602626L1373.8226244,332.63367635843565L1377.1570644,333.08393768716576L1380.4915044,333.65362387820574L1383.8259444,332.73020360289553L1387.1603843999999,332.907584701935L1390.4948244,332.93910165784047L1393.8292644,333.3544423901451L1397.1637044,333.28925308046723L1400.4981444,333.37385096233857L1403.8325844,333.3279983947096L1407.1670244,333.11645873609456L1410.5014644,333.3996150110803L1413.8359044000001,332.23426736831584L1417.1703444,328.62927321055656L1420.5047844,329.2894636098912L1423.8392244,329.5046881452708L1427.1736644,329.6005728256013L1430.5081044,330.1464196847949L1433.8425444,330.6632599895823L1437.1769844,330.609151635396L1440.5114244000001,331.5677844866401L1443.8458644,329.8844418182003L1447.1803044,330.5057777630237L1450.5147444000002,330.34068624317916L1453.8491844,331.2781768802012L1457.1836244,331.5897748441642L1460.5180644,332.0754514441003L1463.8525044,331.03194019444675L1467.1869444000001,331.6398189716189L1470.5213844,332.32130038157413L1473.8558244,331.1928472272564L1477.1902644000002,331.4884131985035L1480.5247044,331.9761800143144L1483.8591444,332.0915394993202L1487.1935844000002,331.4195703771437L1490.5280244,329.4080797343284L1493.8624644000001,328.39698656944705L1497.1969044,328.76266921065553L1500.5313444,328.26917427788766" style="fill: none;" fill="none" transform="matrix(2.961506, 0, 0, 1.528778, -1915.444524, 58.40372)"/>
            </g>
            <g>
              <line x1="0" y1="377" x2="1666.048125" y2="377" fill="rgb(0, 0, 0)" stroke="rgb(66, 66, 66)" stroke-width="1px" opacity="0.25"/>
              <line x1="140.025" y1="347.044" x2="1527.437" y2="345.583" fill="rgb(0, 0, 0)" stroke="rgb(66, 66, 66)" stroke-width="1px" opacity="0.25"/>
              <line x1="137.197" y1="314.167" x2="1527.437" y2="313.437" fill="rgb(0, 0, 0)" stroke="rgb(66, 66, 66)" stroke-width="1px" opacity="0.25"/>
              <line x1="138.611" y1="283.48" x2="1526.022" y2="282.75" fill="rgb(0, 0, 0)" stroke="rgb(66, 66, 66)" stroke-width="1px" opacity="0.25"/>
              <line x1="138.611" y1="252.794" x2="1528.851" y2="250.603" fill="rgb(0, 0, 0)" stroke="rgb(66, 66, 66)" stroke-width="1px" opacity="0.25"/>
              <line x1="137.197" y1="220.647" x2="1528.851" y2="219.917" fill="rgb(0, 0, 0)" stroke="rgb(66, 66, 66)" stroke-width="1px" opacity="0.25"/>
              <line x1="137.197" y1="187.77" x2="1526.022" y2="188.5" fill="rgb(0, 0, 0)" stroke="rgb(66, 66, 66)" stroke-width="1px" opacity="0.25"/>
              <line x1="135.782" y1="157.083" x2="1527.437" y2="157.083" fill="rgb(0, 0, 0)" stroke="rgb(66, 66, 66)" stroke-width="1px" opacity="0.25"/>
              <line x1="135.782" y1="124.937" x2="1528.851" y2="124.207" fill="rgb(0, 0, 0)" stroke="rgb(66, 66, 66)" stroke-width="1px" opacity="0.25"/>
              <line x1="138.611" y1="92.79" x2="1531.68" y2="92.79" fill="rgb(0, 0, 0)" stroke="rgb(66, 66, 66)" stroke-width="1px" opacity="0.25"/>
              <line x1="140.025" y1="60.643" x2="1527.437" y2="59.182" fill="rgb(0, 0, 0)" stroke="rgb(66, 66, 66)" stroke-width="1px" opacity="0.25"/>
              <line x1="137.197" y1="31.417" x2="1530.266" y2="29.957" fill="rgb(0, 0, 0)" stroke="rgb(66, 66, 66)" stroke-width="1px" opacity="0.25"/>
              <line x1="135.782" y1="1.46" x2="1527.437" y2="-0.73" fill="rgb(0, 0, 0)" stroke="rgb(66, 66, 66)" stroke-width="1px" opacity="0.25"/>
            </g>
          </g>
        </g>
        <g>
          <g>
            <line x1="0" y1="565.5" x2="1666.048125" y2="565.5" fill="rgb(0, 0, 0)" stroke="rgb(153, 153, 153)" stroke-width="1.5px"/>
          </g>
        </g>
        <g>
          <g>
            <line x1="138.83734375" y1="0" x2="138.83734375" y2="377" fill="rgb(0, 0, 0)" stroke="rgb(153, 153, 153)" stroke-width="1.5px"/>
          </g>
        </g>
        <g>
          <g>
            <g>
              <g>
                <g>
                  <path stroke-width="2px" d="M181.863036578125,-0.7853896385120256L183.251410015625,6.494134249347694L184.639783453125,13.374395388769129L186.028156890625,19.826266823860294L187.41653032812502,21.968781965863087L188.804903765625,27.35063669400695L190.193277203125,31.678360082375352L191.581650640625,36.69054958758758L192.970024078125,41.930058923816155L194.358397515625,47.62607710311268L195.74677095312498,53.18655407235557L197.13514439062502,58.128236047446215L198.52351782812502,62.76046795569755L199.911891265625,66.45449645029024L201.300264703125,71.41931311965656L202.688638140625,76.17892703013553L204.077011578125,80.88310538864434L205.465385015625,86.13326697405397L206.85375845312498,89.93236086831834L208.24213189062502,91.68864376784292L209.630505328125,96.11488024959911L211.01887876562503,99.4025770770216L212.407252203125,102.84018101635594L213.795625640625,106.15465243223129L215.18399907812503,108.73586798609182L216.572372515625,113.00943682874734L217.96074595312498,116.84369256716761L219.349119390625,119.38319066780836L220.73749282812503,123.00716188261886L222.125866265625,124.77377295561098L223.51423970312499,126.66382653059472L224.90261314062502,129.7387266653453L226.290986578125,131.41832573609832L227.67936001562498,134.91054757793142L229.06773345312502,138.1139285680636L230.45610689062502,140.46642792911956L231.844480328125,143.32778599798718L233.23285376562498,146.00404070925285L234.62122720312502,148.42451299983915L236.009600640625,151.3030854389421L237.39797407812497,153.60802443888971L238.786347515625,156.0736045729709L240.174720953125,157.73007079095208L241.563094390625,160.64403299548178L242.95146782812503,163.26543548383867L244.339841265625,165.2687585749338L245.728214703125,167.7263438853483L247.11658814062503,168.61800668449234L248.504961578125,169.61611913916602L249.89333501562498,171.07267384795446L251.281708453125,173.31518281080224L252.67008189062503,175.69703116657902L254.058455328125,177.3573830996702L255.44682876562499,176.87312958266097L256.835202203125,178.76243944400275L258.22357564062503,181.04820997276366L259.611949078125,182.66058169290105L261.00032251562504,184.8168734252597L262.388695953125,185.7333930981855L263.777069390625,187.80721822006504L265.16544282812504,188.23631652283188L266.553816265625,189.92218644317916L267.942189703125,191.40856623920115L269.330563140625,192.68145147696814L270.718936578125,194.4047628031454L272.107310015625,195.29307792688843L273.49568345312497,196.07243543201488L274.884056890625,197.96919421760725L276.272430328125,198.33795734635265L277.660803765625,199.52641232922943L279.049177203125,200.77268650189967L280.43755064062503,201.9828283224965L281.825924078125,203.0480544661011L283.21429751562505,204.44561448151458L284.602670953125,206.11016360491666L285.991044390625,207.18157824133067L287.379417828125,208.7781325616958L288.767791265625,210.4883927546949L290.156164703125,211.08389948617037L291.544538140625,211.62821101433838L292.932911578125,212.58833183954113L294.321285015625,213.8659461376557L295.709658453125,215.13205211827162L297.098031890625,215.76799075348336L298.486405328125,217.0978712740515L299.87477876562497,218.46914141237778L301.263152203125,219.41982775506716L302.65152564062504,220.10258607159855L304.039899078125,220.66566354253007L305.428272515625,219.94756539347887L306.81664595312503,221.3779490786372L308.205019390625,222.49256844831405L309.593392828125,224.2110754669705L310.981766265625,225.27730138289186L312.370139703125,226.1381616901147L313.758513140625,227.29433283053015L315.146886578125,228.08611417652335L316.535260015625,229.04084813952727L317.923633453125,229.7345694826381L319.312006890625,229.90612794043955L320.700380328125,231.31129591852692L322.088753765625,231.78951594146608L323.477127203125,232.38282249935568L324.86550064062504,232.73287072991562L326.253874078125,233.81099508371165L327.642247515625,235.11593079849806L329.03062095312504,235.57338146110072L330.418994390625,236.04438281067993L331.807367828125,236.62991313861343L333.19574126562503,237.63009830834514L334.584114703125,238.30139138962485L335.972488140625,239.3684750106933L337.36086157812497,240.36611594287712L338.749235015625,241.38382067623564L340.137608453125,240.5297467996738L341.52598189062496,240.62104907848934L342.914355328125,241.3946588350928L344.302728765625,242.13033455816938L345.691102203125,243.1671872890961L347.07947564062505,244.02916464699783L348.467849078125,244.69134984180593L349.856222515625,245.38692031931674L351.24459595312504,245.8749289666762L352.632969390625,246.76417098509646L354.021342828125,247.5132204039351L355.409716265625,248.552320900019L356.798089703125,249.3686776755404L358.186463140625,250.38181601764316L359.574836578125,250.64462758835006L360.963210015625,250.94687125851877L362.351583453125,251.79341946830974L363.73995689062497,252.6040337378329L365.128330328125,252.44820211664114L366.516703765625,252.59204976713593L367.905077203125,253.2860804219279L369.29345064062505,254.0265583915248L370.68182407812503,254.38769057618774L372.070197515625,255.10175805340407L373.458570953125,255.61971842739854L374.846944390625,255.69238754127156L376.235317828125,256.39445650520076L377.623691265625,256.9276170286447L379.012064703125,257.8623458446753L380.400438140625,257.2806406474847L381.788811578125,258.03853711615415L383.177185015625,258.80393123464995L384.565558453125,259.46966372664554L385.953931890625,259.9538635850665L387.342305328125,260.2783440310267L388.730678765625,260.5474947404447L390.119052203125,261.0110725565618L391.507425640625,261.58967387094617L392.89579907812504,262.35055760875167L394.284172515625,263.0965626702272L395.672545953125,262.99654082640836L397.06091939062503,263.69283412521935L398.449292828125,264.3830908268864L399.837666265625,263.5823240321343L401.226039703125,263.8393609459785L402.614413140625,264.53865241361075L404.002786578125,265.18545269383657L405.391160015625,265.6182411413311L406.779533453125,266.15351984144615L408.167906890625,265.2808255573191L409.556280328125,265.73946869987424L410.944653765625,266.18571103835745L412.333027203125,266.63936597054123L413.721400640625,267.2074113042135L415.10977407812504,267.17026772649524L416.498147515625,267.40377737966656L417.88652095312506,267.4169497099246L419.274894390625,268.0659194622822L420.663267828125,268.83141047155976L422.05164126562505,268.6028762533312L423.440014703125,268.95377959992766L424.828388140625,268.7354571748389L426.21676157812504,269.30411288535913L427.60513501562497,269.91543847915955L428.993508453125,270.4876084315052L430.38188189062504,271.01884407533424L431.770255328125,271.4948974555405L433.158628765625,271.69198195575433L434.547002203125,272.24303780751467L435.935375640625,272.4273430719929L437.32374907812505,272.47802190643847L438.71212251562497,272.7627709244459L440.100495953125,273.01762504877604L441.48886939062504,273.2693750460847L442.87724282812496,273.22515821743843L444.265616265625,273.74091262114626L445.65398970312503,274.1635971620693L447.04236314062496,274.76491130124157L448.430736578125,275.43717952034416L449.81911001562503,275.9692853446394L451.20748345312495,276.33689523457423L452.595856890625,276.90833056233805L453.984230328125,277.10285018108937L455.372603765625,277.6819388832172L456.76097720312504,278.034333960371L458.1493506406251,278.3031734914934L459.537724078125,278.98202178850545L460.92609751562503,279.38526987873684L462.31447095312507,279.70156978800384L463.702844390625,280.07654635359495L465.091217828125,280.75516774270193L466.47959126562506,281.15265948339396L467.867964703125,281.63570344753197L469.256338140625,282.3071506880298L470.64471157812494,282.8478302414021L472.033085015625,283.17664716504066L473.421458453125,283.2956711114547L474.809831890625,283.6735580051226L476.198205328125,283.8701148692303L477.586578765625,284.5076185790493L478.974952203125,285.0998141696536L480.363325640625,285.48313696485064L481.75169907812506,285.8437468627606L483.140072515625,286.39942285177926L484.528445953125,286.5477229306314L485.91681939062505,286.7962032551509L487.305192828125,287.3071202904381L488.693566265625,287.43225156853987L490.08193970312504,287.868079549755L491.47031314062497,288.17549733911704L492.858686578125,288.66963337661684L494.24706001562504,288.46059247216743L495.63543345312496,288.84420500398414L497.023806890625,289.1094052966225L498.41218032812503,289.42745307270064L499.800553765625,289.198700746656L501.18892720312505,289.5697931208909L502.57730064062497,289.8904148047834L503.965674078125,290.1447978066825L505.35404751562504,290.6344190028313L506.74242095312496,290.97991614679984L508.130794390625,291.4249099314916L509.51916782812503,291.725991113075L510.90754126562496,292.297420302178L512.295914703125,292.71782620948443L513.6842881406251,293.1836207132556L515.072661578125,293.15199535363627L516.461035015625,293.55280510421056L517.8494084531251,294.1379776751359L519.237781890625,294.28428293870064L520.626155328125,294.57474584276366L522.0145287656251,294.814667054347L523.402902203125,295.0108684675068L524.791275640625,295.3103919417022L526.1796490781251,295.5863683875788L527.568022515625,295.9216378658647L528.956395953125,295.951071908657L530.3447693906251,296.1566397273177L531.733142828125,296.53533579826234L533.121516265625,296.723873754494L534.509889703125,296.6896587370618L535.898263140625,297.03227341474565L537.286636578125,297.52428870620344L538.6750100156249,297.9660617030398L540.063383453125,298.2140080504504L541.451756890625,298.3788810345664L542.8401303281249,298.68560188497935L544.228503765625,299.0812383943834L545.616877203125,299.4670771250464L547.0052506406249,299.84948795031113L548.393624078125,300.2203889696138L549.781997515625,300.4754989659814L551.170370953125,300.9040905252668L552.558744390625,301.1585253841167L553.947117828125,301.4120813520405L555.335491265625,301.59844589136L556.7238647031251,301.92080684880983L558.1122381406251,302.1831154945991L559.500611578125,302.557686544234L560.888985015625,302.89828721858834L562.2773584531251,303.2769015621436L563.665731890625,303.62252887414854L565.054105328125,303.6934958917709L566.4424787656251,304.01690054372324L567.830852203125,304.1735012182653L569.219225640625,304.39111186612655L570.6075990781251,304.5541963945296L571.995972515625,304.10629342476716L573.384345953125,304.4896629242271L574.772719390625,304.6757849005052L576.161092828125,304.88749760250874L577.549466265625,305.09806993676494L578.937839703125,305.43916950930196L580.326213140625,305.3848796917968L581.714586578125,305.54568105120126L583.102960015625,305.7705497118538L584.491333453125,306.16503420760955L585.879706890625,306.15747760453564L587.2680803281249,306.4604199822887L588.656453765625,306.51537307169195L590.044827203125,306.827409930596L591.4332006406249,307.08565657119016L592.821574078125,307.1505008386367L594.209947515625,307.5600388748104L595.598320953125,307.96832698944723L596.986694390625,308.1902440372646L598.375067828125,308.3231381007335L599.763441265625,308.6465047125553L601.1518147031251,308.9341499097079L602.5401881406251,309.17495411573407L603.928561578125,309.48730700348864L605.3169350156251,309.5148809653453L606.705308453125,309.18669223609146L608.093681890625,309.2453542934101L609.482055328125,309.4835204344131L610.870428765625,309.62553875016147L612.258802203125,309.8242698551575L613.647175640625,310.17445122208005L615.035549078125,310.3318052413512L616.423922515625,310.30704971582344L617.812295953125,310.23951912052473L619.200669390625,310.4425981072286L620.589042828125,310.6787901775334L621.977416265625,310.59252171515715L623.365789703125,310.87779402263857L624.754163140625,310.15990056435277L626.142536578125,310.48625241157373L627.530910015625,310.67843691109624L628.919283453125,310.8842010701992L630.307656890625,311.00228986140905L631.696030328125,311.23497841200964L633.084403765625,311.4174694617797L634.472777203125,311.6949521133979L635.8611506406249,311.7597384314572L637.249524078125,311.8146898123902L638.637897515625,312.05847039557574L640.026270953125,312.4098697859031L641.414644390625,312.3859803002076L642.803017828125,312.71882508361995L644.191391265625,312.80267407036865L645.5797647031251,313.16639629408877L646.968138140625,313.43405521673395L648.356511578125,313.5429352438637L649.7448850156251,313.61755733774964L651.133258453125,313.7076933523011L652.521631890625,313.92521186699054L653.9100053281251,314.12767238331185L655.298378765625,314.40743275508385L656.686752203125,314.5456900723498L658.0751256406251,314.9418801693452L659.463499078125,315.1637614948313L660.851872515625,315.36310525369834L662.240245953125,315.63572883412957L663.628619390625,315.71546555327427L666.405366265625,315.9886663803996L667.793739703125,316.15355288235133L669.182113140625,316.2313789780795L670.570486578125,316.3620627042664L671.958860015625,316.6970583225773L673.347233453125,316.87132984597565L674.735606890625,316.99474327973627L676.123980328125,316.99545336810206L677.512353765625,317.25722291726055L678.9007272031249,317.20202221996743L680.289100640625,317.5275594420268L681.677474078125,317.4743947137516L683.065847515625,317.56917803593745L684.4542209531251,317.6715928207865L685.842594390625,318.04247870277834L687.230967828125,318.1845120497987L688.619341265625,318.5387434525798L690.0077147031251,318.83646777408734L691.396088140625,318.8930818301966L692.784461578125,319.06104359566456L694.1728350156251,319.12197392307L695.561208453125,319.39765758490114L696.949581890625,319.45758785924664L698.3379553281251,319.4756396777589L699.726328765625,319.51800545792605L701.114702203125,319.6957606955487L702.5030756406251,319.9747801471308L703.891449078125,320.2590493539718L705.279822515625,320.36472157020023L706.6681959531251,320.60763023425653L708.056569390625,320.45994375191685L709.444942828125,320.63661621268744L710.833316265625,320.9254499250198L712.221689703125,321.052200789243L713.610063140625,321.3283139151762L714.9984365781249,321.29266219348233L716.386810015625,320.87415257030574L717.775183453125,321.093792261904L719.1635568906249,321.036186769872L720.551930328125,321.09792432941776L721.940303765625,321.2560531408731L723.3286772031249,321.5088215638444L724.717050640625,321.62288243853567L726.105424078125,321.7004892765248L727.493797515625,321.970121613246L728.8821709531251,322.26887228912705L730.270544390625,322.3577266686973L731.658917828125,322.5936913839803L733.0472912656251,322.76309683723895L734.4356647031251,322.94094941803087L735.824038140625,322.0349054801657L737.212411578125,322.2391611712148L738.6007850156251,322.5494932914749L739.989158453125,322.434642994793L741.377531890625,322.60497613432216L742.7659053281251,322.7432636152359L744.154278765625,322.79217140757504L745.542652203125,322.8041547290724L746.931025640625,322.9908874598261L748.319399078125,322.872152909862L749.707772515625,322.9578745931916L751.096145953125,323.14378255200853L752.484519390625,323.34942430078564L753.872892828125,323.5556688261473L755.261266265625,323.84776723180363L756.649639703125,324.06815085323547L758.038013140625,324.07498319897735L759.426386578125,324.1871459455071L760.814760015625,324.2976844461021L762.203133453125,324.4294017903446L763.5915068906249,324.56620218569003L764.979880328125,324.6168104988938L766.368253765625,324.9176871888776L767.7566272031249,325.07065649884544L769.145000640625,325.21278024996684L770.533374078125,325.4426788931035L771.921747515625,325.5490596658604L773.3101209531251,325.7799462525619L774.698494390625,325.9711211058047L776.086867828125,325.87108818208895L777.4752412656251,326.02711244687544L778.8636147031251,326.2998457183494L780.251988140625,326.51617528061325L781.6403615781251,326.5684097372899L783.028735015625,326.7053965665494L784.417108453125,326.4226059155063L785.8054818906251,326.6673762328702L787.193855328125,326.68488857307455L788.582228765625,326.85410854160574L789.970602203125,327.11408893174655L791.358975640625,327.3753758343076L792.747349078125,327.4928553991515L794.135722515625,327.73174443818914L795.524095953125,327.8108199384013L796.912469390625,328.04812416019314L798.300842828125,328.1657748462315L799.689216265625,328.22429690001485L801.077589703125,328.44130739975134L802.465963140625,328.61474080133127L803.854336578125,328.8035862862912L805.242710015625,328.7624221840361L806.631083453125,328.85085640287537L808.019456890625,329.0347854655128L809.407830328125,329.095677749321L810.796203765625,329.24161180274683L812.184577203125,329.0080728791532L813.572950640625,328.89928129094847L814.961324078125,328.8465393245116L816.349697515625,328.88765602588234L817.7380709531251,328.9079527366077L819.126444390625,329.1018670789578L820.514817828125,328.4281614304817L821.9031912656251,328.69581360886883L823.291564703125,328.54475963658206L824.679938140625,328.5928145630663L826.0683115781251,328.6096218475129L827.456685015625,328.74263310293844L828.845058453125,328.86999114481483L830.2334318906251,329.0076854003292L831.621805328125,329.07995203380364L833.010178765625,329.18549796368734L834.398552203125,329.0831648697196L835.786925640625,329.0891078716491L837.175299078125,329.2572006763287L838.5636725156251,329.40424590421657L839.9520459531251,329.37197148972734L841.3404193906249,329.42651397602293L842.7287928281249,329.60753302322246L844.117166265625,329.4341839463003L845.505539703125,329.61303124091364L846.893913140625,329.7289236457198L848.2822865781251,329.8657335369117L849.6706600156249,329.96613620251827L851.0590334531249,330.0865490357152L852.447406890625,330.10113355555484L853.835780328125,330.3058251460617L855.224153765625,330.3904303169557L856.6125272031251,330.5502107861146L858.000900640625,330.6201804674922L859.389274078125,330.84406344602934L860.7776475156251,330.97801045897074L862.166020953125,330.87986171264254L863.554394390625,331.02663773098243L864.942767828125,331.1614962506583L866.331141265625,331.2948619653169L867.719514703125,331.38310985606375L869.107888140625,331.59824454278277L870.4962615781251,331.6770204694814L871.8846350156251,331.87092429658657L873.2730084531249,332.0885632738982L874.661381890625,331.99475871571656L876.049755328125,332.0655416246676L877.438128765625,332.06233487245186L878.8265022031251,332.1893531669972L880.2148756406251,332.30179521139394L881.6032490781249,332.4733351951187L882.991622515625,332.5321538292706L884.379995953125,332.6963719924751L885.768369390625,332.7479515952362L887.1567428281251,332.3720627176063L888.5451162656251,332.5240014518019L889.9334897031249,332.7219840118605L891.3218631406249,332.8642790002903L892.710236578125,332.9207797033967L894.098610015625,333.1710745125539L895.486983453125,333.35315356303414L896.8753568906251,333.3882868550013L898.263730328125,333.51839212405565L899.6521037656249,333.6148126341212L901.040477203125,333.8122742962931L902.428850640625,333.967881921602L903.817224078125,333.9573660465572L905.205597515625,333.62487088361087L906.593970953125,333.67782897793705L907.982344390625,333.54879374669366L909.3707178281251,333.6964797265507L910.7590912656251,333.8618093452209L912.1474647031251,333.9359241384981L913.535838140625,334.05649838061515L914.924211578125,334.1218007685929L916.312585015625,334.2830883689679L917.700958453125,333.9598446984597L919.0893318906251,334.1423430842281L920.4777053281251,334.27989206829034L921.8660787656249,334.33113159235324L923.254452203125,334.56261404503977L924.642825640625,334.4703503705995L926.031199078125,334.62277188154235L927.4195725156251,334.82306500187724L928.8079459531251,334.8085388735257L930.1963193906249,334.92374290923425L931.584692828125,335.0568763899496L932.973066265625,335.1716914512278L934.361439703125,335.08860093906924L935.7498131406251,335.1536881840109L937.1381865781249,335.07555675054346L938.5265600156249,335.0747356178369L939.914933453125,335.2227251478135L941.303306890625,335.38050095355186L942.691680328125,335.57209754542805L944.080053765625,335.66317822180224L945.468427203125,335.8532946401497L946.856800640625,336.02026477786654L948.245174078125,336.15876867319815L949.6335475156251,336.2211765825957L951.021920953125,336.24472078147375L952.410294390625,336.2916229138836L953.798667828125,336.247587420827L955.187041265625,336.24963844466845L956.575414703125,336.35111934139746L957.9637881406251,336.50438189123213L959.3521615781251,336.5880209086218L960.7405350156251,336.7359682066598L962.128908453125,336.91666663690995L963.517281890625,336.6824749267654L964.905655328125,336.82523293478937L966.2940287656251,336.94725027245266L967.6824022031251,337.09392296976387L969.0707756406251,337.18827025690206L970.4591490781249,337.3027233584305L971.847522515625,337.43242115896095L973.235895953125,337.5997853315119L974.624269390625,337.39372144063356L976.0126428281251,337.4239812019597L977.4010162656249,337.59335775452826L978.7893897031249,337.66281628834923L980.177763140625,337.7305000084785L981.566136578125,337.6144447832856L982.954510015625,337.6165376225787L984.3428834531251,337.71443727337436L985.731256890625,337.63424499358786L987.1196303281249,337.186394998694L988.508003765625,337.2828772205595L989.896377203125,337.4818147601495L991.284750640625,337.6145125660399L992.673124078125,337.62669304408195L994.061497515625,337.86735333813124L995.449870953125,337.83682650481944L996.838244390625,337.97690315264174L998.2266178281251,338.1530793590291L999.6149912656251,338.2347768764587L1001.0033647031252,338.37797199057394L1002.391738140625,338.27033252344523L1003.780111578125,338.4184509012148L1005.168485015625,338.4496909840294L1006.5568584531251,338.64249962447883L1007.9452318906251,338.7137331308977L1009.3336053281249,338.81975553371L1010.721978765625,338.86189283159734L1012.110352203125,338.4749003924926L1013.498725640625,338.66820246331247L1014.8870990781251,338.66910570118813L1016.2754725156251,338.8210460019471L1017.6638459531249,338.98705803809514L1019.0522193906249,338.94934922056683L1020.440592828125,338.8948487450336L1021.828966265625,338.8586507061844L1023.217339703125,338.9684559124782L1024.605713140625,339.1124359478655L1025.994086578125,339.2595806156861L1027.382460015625,339.3352389379659L1028.770833453125,339.3553734884617L1030.159206890625,339.4937797675394L1031.5475803281252,339.5244660885947L1032.935953765625,339.58578441762944L1034.324327203125,339.6595587669262L1035.712700640625,339.599511725422L1037.101074078125,339.47679241280815L1038.489447515625,339.5510590563305L1039.8778209531251,339.64647156547284L1041.2661943906248,339.7807654228924L1042.654567828125,339.76573854816434L1044.042941265625,339.8398286651168L1045.431314703125,339.8980439004612L1046.819688140625,339.84668451162594L1048.2080615781251,339.9149443629069L1049.5964350156248,340.0401712065613L1050.984808453125,340.0783029580813L1052.373181890625,340.2143821073163L1053.761555328125,340.28539838463763L1055.149928765625,340.44170944660965L1056.538302203125,340.54569418958505L1057.926675640625,340.66231425846917L1059.315049078125,340.63221170984195L1060.703422515625,340.5824695067019L1062.091795953125,340.6282265212988L1063.4801693906252,340.75198132902443L1064.868542828125,340.8149025080019L1066.256916265625,341.0083234292324L1067.645289703125,341.0937507341735L1069.033663140625,341.2686637439917L1070.422036578125,341.4471233740048L1071.8104100156252,341.5362903706246L1073.198783453125,341.6763813202718L1074.587156890625,341.9000684280779L1075.975530328125,341.99503768780585L1077.363903765625,342.1081441930943L1078.752277203125,342.13055417592034L1080.1406506406252,342.1862421358369L1081.5290240781248,342.2685647704414L1082.917397515625,342.27084595798505L1084.305770953125,342.38534150178407L1085.694144390625,342.58081398086784L1087.082517828125,342.6962526680619L1088.4708912656251,342.7378610433431L1089.8592647031248,342.4464779950942L1091.247638140625,342.47588914564886L1092.636011578125,342.5076422771754L1094.024385015625,342.15027163040645L1095.412758453125,342.22828364772624L1096.8011318906251,342.3323671023443L1098.189505328125,342.45859297585173L1099.577878765625,342.5100170954031L1100.9662522031251,342.53597913591426L1102.354625640625,342.57352099387566L1103.742999078125,342.51473006078027L1105.1313725156251,342.6290022791858L1106.519745953125,342.64377428178784L1107.908119390625,342.8064035898723L1109.296492828125,342.87734328777964L1110.684866265625,343.0110084635584L1112.0732397031252,342.6480682247857L1113.4616131406249,342.6979724095623L1114.849986578125,342.7580348653236L1116.238360015625,342.83062914539687L1117.626733453125,342.7510876185549L1119.015106890625,342.9345305244816L1120.4034803281252,342.97902265298643L1121.7918537656249,343.0174777886799L1123.180227203125,343.0780964251531L1124.568600640625,343.1740717370477L1125.956974078125,343.268139871739L1127.345347515625,343.4230534936307L1128.7337209531252,343.5358182598622L1130.1220943906249,343.65132475903295L1131.510467828125,343.6166062386371L1132.898841265625,343.6321256833532L1134.287214703125,343.80335984244306L1135.675588140625,343.87762461425064L1137.0639615781251,343.94931457432733L1138.4523350156248,344.09524046199596L1139.840708453125,344.1253190424213L1141.229081890625,344.19917944196385L1142.617455328125,344.21575704525844L1144.005828765625,344.2941898559993L1145.394202203125,344.2366535892424L1146.782575640625,344.08026837541036L1148.170949078125,344.228593676312L1149.5593225156251,344.33750857792705L1150.947695953125,344.5227649662384L1152.3360693906252,344.50933894107413L1153.724442828125,344.3882875278519L1155.112816265625,344.26891080216296L1156.501189703125,344.2558116530909L1157.8895631406251,344.33044553840625L1159.277936578125,344.42093343243715L1160.6663100156252,344.4930965637731L1162.0546834531249,344.46020097431386L1163.443056890625,344.5058653714673L1164.831430328125,344.3808229675964L1166.219803765625,344.5038424486367L1167.608177203125,344.4509369762275L1168.9965506406252,344.5573927118469L1170.3849240781249,344.529391430043L1171.773297515625,344.5051003888294L1173.161670953125,344.5454484407259L1174.550044390625,344.6360582476119L1175.938417828125,344.55082148323515L1177.3267912656252,344.60628616739183L1178.7151647031249,344.7117995597426L1180.103538140625,344.7212646277373L1181.491911578125,344.7759425035412L1182.880285015625,344.86264954053985L1184.268658453125,344.8479400001183L1185.657031890625,344.957573095651L1187.045405328125,344.6044176623985L1188.433778765625,344.688230440374L1189.8221522031251,344.30597877519637L1191.210525640625,344.2790058553555L1192.598899078125,344.24686806693006L1193.987272515625,344.35023751211895L1195.375645953125,344.51425455067545L1198.1523928281251,344.66472415565573L1199.540766265625,344.8551443277401L1200.9291397031252,344.92990306065377L1202.317513140625,345.0300130349798L1203.705886578125,345.1403201478283L1205.094260015625,345.192021716252L1206.4826334531251,345.26886300157594L1207.871006890625,345.2857931680003L1209.2593803281252,344.8896801589554L1210.6477537656249,345.0224563736974L1212.036127203125,345.02610450820515L1213.424500640625,345.1839936346828L1214.812874078125,345.26763286310324L1216.201247515625,345.3718313457696L1217.589620953125,345.42279227992884L1218.9779943906249,345.5487583913649L1220.366367828125,345.56751780617526L1221.754741265625,345.5970114299084L1223.143114703125,345.68679973669185L1224.531488140625,345.6958439816465L1225.919861578125,345.6389432879472L1227.3082350156249,345.70138083439485L1228.696608453125,345.8346963069449L1230.084981890625,345.8252927694497L1231.473355328125,345.80365137863265L1232.861728765625,345.9395627482175L1234.250102203125,346.0151861407924L1235.638475640625,345.9871716038771L1237.026849078125,346.0295258175536L1238.4152225156251,346.10575788858756L1239.803595953125,346.12216743118654L1241.1919693906252,345.9353828104075L1242.580342828125,345.90365380890364L1243.968716265625,345.3274912027748L1245.357089703125,345.4681972106231L1246.7454631406251,345.583203190295L1248.133836578125,345.65255963909726L1249.522210015625,345.6823311542429L1250.910583453125,345.7471491102985L1252.298956890625,345.8017977033123L1253.687330328125,345.7711645935621L1255.0757037656251,345.56609969519104L1256.464077203125,345.6068940470006L1257.852450640625,345.5759180888208L1259.240824078125,345.66892326912097L1260.629197515625,345.721681696781L1262.017570953125,345.8526657506695L1263.405944390625,345.97085775471743L1264.794317828125,346.0704374013376L1266.182691265625,346.1618309503188L1267.5710647031249,346.26717057989566L1268.959438140625,346.41192187710976L1270.347811578125,346.349926569022L1271.736185015625,346.41019784646375L1273.124558453125,346.54390495094225L1274.512931890625,346.51612605042413L1275.901305328125,346.5416550639436L1277.289678765625,346.39873139804354L1278.678052203125,346.5077583727297L1280.066425640625,346.1030644449006L1281.454799078125,346.19378430049557L1282.843172515625,346.1880746663308L1284.231545953125,346.3376679068002L1285.619919390625,346.34030824423866L1287.0082928281251,346.3235078796656L1288.396666265625,346.4612508278011L1289.785039703125,346.6001992275681L1291.173413140625,346.7258689928977L1292.561786578125,346.8224563127696L1293.950160015625,346.87334287634366L1295.3385334531251,346.9953919363571L1296.726906890625,347.08348309590826L1298.115280328125,347.0044965734636L1299.503653765625,347.044617008104L1300.892027203125,347.0435997976163L1302.280400640625,347.10213183596215L1303.6687740781251,347.112117221916L1305.057147515625,347.09293348261656L1306.445520953125,347.1352182325113L1307.833894390625,347.2114996332563L1309.222267828125,347.2983792731745L1310.610641265625,347.37130401052696L1311.999014703125,347.37210097836004L1313.387388140625,347.46800751376014L1314.775761578125,347.51558979138827L1316.1641350156249,347.4773854516822L1318.940881890625,347.5607293903529L1320.329255328125,347.56256695872264L1321.717628765625,347.6395134079939L1323.106002203125,347.56753381610696L1324.494375640625,347.6082679740677L1325.882749078125,347.6290918553357L1327.2711225156252,347.41712588489554L1328.659495953125,347.50004234832784L1330.047869390625,347.5610495752339L1331.436242828125,347.6753155692602L1332.824616265625,347.5467728982238L1334.212989703125,347.52845501639047L1335.6013631406252,347.65394859085296L1336.989736578125,347.73195291547177L1338.378110015625,347.82409243739954L1339.766483453125,347.87247300047477L1341.154856890625,347.99709548739804L1342.543230328125,348.0541835960565L1343.9316037656251,348.1401676987434L1345.319977203125,348.1154200602594L1346.708350640625,348.1619542310019L1348.096724078125,348.2915130565196L1349.485097515625,348.34631714740783L1350.873470953125,348.4195563315314L1352.2618443906251,348.5154267784581L1353.6502178281248,348.60348070759164L1355.038591265625,348.4143666911569L1356.426964703125,348.5417363187724L1357.815338140625,348.5544623224506L1359.203711578125,348.5835695745918L1360.5920850156251,348.60420107594337L1361.980458453125,348.60980796872417L1363.368831890625,348.7132785589012L1364.757205328125,348.81732159383614L1366.145578765625,348.7533277576599L1367.533952203125,348.71839670978864L1368.922325640625,348.7506805923589L1370.310699078125,348.8082680101945L1371.699072515625,348.87307483644406L1373.087445953125,348.83035729111765L1374.475819390625,348.854976190904L1375.8641928281252,348.98235027235467L1377.252566265625,349.0184608317218L1378.640939703125,349.0412149111856L1380.029313140625,349.1515678893467L1381.417686578125,349.1578278761969L1382.806060015625,349.26084209655335L1384.1944334531252,349.27639685155646L1385.582806890625,349.34393420746125L1386.971180328125,349.14809392289754L1388.359553765625,349.22996408426906L1389.747927203125,349.3607402000962L1391.136300640625,349.3926086622944L1392.5246740781251,349.31623653378034L1393.9130475156248,349.37501093018244L1395.301420953125,349.47515495382504L1396.689794390625,349.6116456465419L1398.078167828125,349.72151743309087L1399.466541265625,349.5934072452157L1400.8549147031251,349.5752753195821L1402.243288140625,349.55605883217487L1403.631661578125,349.4928563172659L1405.020035015625,349.51356561031236L1406.408408453125,349.56504113928196L1407.796781890625,349.6382940049927L1409.1851553281251,349.7590128536452L1410.573528765625,349.37339198332626L1411.961902203125,349.482406340942L1413.3502756406251,349.52665464144985L1414.738649078125,349.363809608682L1416.1270225156252,349.4160855628088L1417.515395953125,349.4360933999881L1418.903769390625,349.56777043868027L1420.292142828125,349.612913671554L1421.680516265625,349.69696017779813L1423.068889703125,349.7789117545427L1424.4572631406252,349.74821963925336L1425.8456365781249,349.85071371946214L1427.234010015625,349.86281811120887L1428.622383453125,349.9044073833325L1430.010756890625,349.86460194942964L1431.399130328125,349.95372427501786L1432.7875037656252,349.94782623137763L1434.1758772031249,350.01976191736895L1435.564250640625,349.8956999649796L1436.952624078125,349.91657126586546L1438.340997515625,349.99120908452744L1439.729370953125,350.11033681866127L1441.1177443906251,350.0232312427807L1442.5061178281248,350.1752254717765L1443.894491265625,350.2051209426822L1445.282864703125,350.30147570514345L1446.671238140625,350.39139937195995L1448.059611578125,350.4423598135863L1449.4479850156251,350.52253419509145L1450.836358453125,350.6282741671162L1452.224731890625,350.6731729458165L1453.6131053281251,350.5341045379075L1455.001478765625,350.5482389793651L1456.389852203125,350.53844913527263L1457.778225640625,350.60504941851L1459.166599078125,350.48388606100303L1460.554972515625,350.5534367001112L1461.9433459531251,350.5643321349605L1463.331719390625,350.6571720081182L1464.7200928281252,350.76857251901123L1466.1084662656249,350.26371436338906L1467.496839703125,350.3907365281261L1468.885213140625,350.46642060095945L1470.273586578125,350.6037905163612L1471.661960015625,350.53221954646904L1473.0503334531252,350.43545748951095L1474.4387068906249,350.4919038337921L1475.827080328125,350.5490671049209L1477.215453765625,350.69284847482936L1478.603827203125,350.7778996203093L1479.992200640625,350.78449275581653L1481.3805740781252,350.8229133077935L1482.7689475156249,350.90742000119576L1484.157320953125,350.7679578156395L1485.545694390625,350.869848550651L1486.934067828125,350.9402523094619L1488.322441265625,350.6440586542874L1489.7108147031252,350.75998531951234L1491.099188140625,350.84786745039867L1492.487561578125,350.92174950349334L1493.875935015625,350.95151746530996L1495.264308453125,351.01523042363766L1496.652681890625,351.1172834431888L1498.041055328125,351.02869081483783L1499.429428765625,351.038833588521L1500.817802203125,351.1047235785222L1502.2061756406251,350.99493614270574L1503.594549078125,351.02403295163634L1504.9829225156252,351.0425575473678L1506.371295953125,351.15739980747855L1507.759669390625,351.25484475871696L1509.148042828125,351.24252228615984" style="fill: none;" fill="none" stroke="green"/>
                </g>
              </g>
            </g>
          </g>
          <g opacity="0.2">
            <g>
              <g>
                
              </g>
            </g>
          </g>
        </g>
        <g>
          <g opacity="0.0209607"/>
        </g>
      </g>
      <g transform="translate(41, 377)" clip-path="url(#clip_1)">
        <clipPath id="clip_1">
          <rect width="1666" height="22"/>
        </clipPath>
        <g>
          <g>
            <line x1="138.83734375" y1="0" x2="138.83734375" y2="5" style="visibility: inherit;" fill="rgb(0, 0, 0)" stroke="rgb(204, 204, 204)" stroke-width="1px"/>
            <line x1="277.6746875" y1="0" x2="277.6746875" y2="5" style="visibility: inherit;" fill="rgb(0, 0, 0)" stroke="rgb(204, 204, 204)" stroke-width="1px"/>
            <line x1="416.51203125" y1="0" x2="416.51203125" y2="5" style="visibility: inherit;" fill="rgb(0, 0, 0)" stroke="rgb(204, 204, 204)" stroke-width="1px"/>
            <line x1="555.349375" y1="0" x2="555.349375" y2="5" style="visibility: inherit;" fill="rgb(0, 0, 0)" stroke="rgb(204, 204, 204)" stroke-width="1px"/>
            <line x1="694.1867187500001" y1="0" x2="694.1867187500001" y2="5" style="visibility: inherit;" fill="rgb(0, 0, 0)" stroke="rgb(204, 204, 204)" stroke-width="1px"/>
            <line x1="833.0240625" y1="0" x2="833.0240625" y2="5" style="visibility: inherit;" fill="rgb(0, 0, 0)" stroke="rgb(204, 204, 204)" stroke-width="1px"/>
            <line x1="971.8614062500001" y1="0" x2="971.8614062500001" y2="5" style="visibility: inherit;" fill="rgb(0, 0, 0)" stroke="rgb(204, 204, 204)" stroke-width="1px"/>
            <line x1="1110.69875" y1="0" x2="1110.69875" y2="5" style="visibility: inherit;" fill="rgb(0, 0, 0)" stroke="rgb(204, 204, 204)" stroke-width="1px"/>
            <line x1="1249.53609375" y1="0" x2="1249.53609375" y2="5" style="visibility: inherit;" fill="rgb(0, 0, 0)" stroke="rgb(204, 204, 204)" stroke-width="1px"/>
            <line x1="1388.3734375000001" y1="0" x2="1388.3734375000001" y2="5" style="visibility: inherit;" fill="rgb(0, 0, 0)" stroke="rgb(204, 204, 204)" stroke-width="1px"/>
            <line x1="1527.2107812499999" y1="0" x2="1527.2107812499999" y2="5" style="visibility: inherit;" fill="rgb(0, 0, 0)" stroke="rgb(204, 204, 204)" stroke-width="1px"/>
          </g>
          <g transform="translate(0, 8)">
            <text x="0" y="0" dx="0em" dy="0.95em" style="text-anchor: middle; visibility: hidden; font-family: Roboto, sans-serif; font-size: 12px; font-weight: 200; white-space: pre;" fill="rgb(33, 33, 33)" stroke="none" stroke-width="1px">-10k</text>
            <text x="138.83734375" y="0" dx="0em" dy="0.95em" style="text-anchor: middle; visibility: inherit; font-family: Roboto, sans-serif; font-size: 12px; font-weight: 200; white-space: pre;" fill="rgb(33, 33, 33)" stroke="none" stroke-width="1px">0</text>
            <text x="277.6746875" y="0" dx="0em" dy="0.95em" style="text-anchor: middle; visibility: inherit; font-family: Roboto, sans-serif; font-size: 12px; font-weight: 200; white-space: pre;" fill="rgb(33, 33, 33)" stroke="none" stroke-width="1px">10k</text>
            <text x="416.51203125" y="0" dx="0em" dy="0.95em" style="text-anchor: middle; visibility: inherit; font-family: Roboto, sans-serif; font-size: 12px; font-weight: 200; white-space: pre;" fill="rgb(33, 33, 33)" stroke="none" stroke-width="1px">20k</text>
            <text x="555.349375" y="0" dx="0em" dy="0.95em" style="text-anchor: middle; visibility: inherit; font-family: Roboto, sans-serif; font-size: 12px; font-weight: 200; white-space: pre;" fill="rgb(33, 33, 33)" stroke="none" stroke-width="1px">30k</text>
            <text x="694.1867187500001" y="0" dx="0em" dy="0.95em" style="text-anchor: middle; visibility: inherit; font-family: Roboto, sans-serif; font-size: 12px; font-weight: 200; white-space: pre;" fill="rgb(33, 33, 33)" stroke="none" stroke-width="1px">40k</text>
            <text x="833.0240625" y="0" dx="0em" dy="0.95em" style="text-anchor: middle; visibility: inherit; font-family: Roboto, sans-serif; font-size: 12px; font-weight: 200; white-space: pre;" fill="rgb(33, 33, 33)" stroke="none" stroke-width="1px">50k</text>
            <text x="971.8614062500001" y="0" dx="0em" dy="0.95em" style="text-anchor: middle; visibility: inherit; font-family: Roboto, sans-serif; font-size: 12px; font-weight: 200; white-space: pre;" fill="rgb(33, 33, 33)" stroke="none" stroke-width="1px">60k</text>
            <text x="1110.69875" y="0" dx="0em" dy="0.95em" style="text-anchor: middle; visibility: inherit; font-family: Roboto, sans-serif; font-size: 12px; font-weight: 200; white-space: pre;" fill="rgb(33, 33, 33)" stroke="none" stroke-width="1px">70k</text>
            <text x="1249.53609375" y="0" dx="0em" dy="0.95em" style="text-anchor: middle; visibility: inherit; font-family: Roboto, sans-serif; font-size: 12px; font-weight: 200; white-space: pre;" fill="rgb(33, 33, 33)" stroke="none" stroke-width="1px">80k</text>
            <text x="1388.3734375000001" y="0" dx="0em" dy="0.95em" style="text-anchor: middle; visibility: inherit; font-family: Roboto, sans-serif; font-size: 12px; font-weight: 200; white-space: pre;" fill="rgb(33, 33, 33)" stroke="none" stroke-width="1px">90k</text>
            <text x="1527.2107812499999" y="0" dx="0em" dy="0.95em" style="text-anchor: middle; visibility: inherit; font-family: Roboto, sans-serif; font-size: 12px; font-weight: 200; white-space: pre;" fill="rgb(33, 33, 33)" stroke="none" stroke-width="1px">100k</text>
            <text x="1666.048125" y="0" dx="0em" dy="0.95em" style="text-anchor: middle; visibility: hidden; font-family: Roboto, sans-serif; font-size: 12px; font-weight: 200; white-space: pre;" fill="rgb(33, 33, 33)" stroke="none" stroke-width="1px">110k</text>
          </g>
          <line x1="138.528" y1="0" x2="1527.457" y2="0.229" fill="rgb(0, 0, 0)" stroke="rgb(204, 204, 204)" stroke-width="1px"/>
        </g>
      </g>
    </g>
  </g>
  <text style="white-space: pre; fill: rgb(51, 51, 51); font-family: Arial, sans-serif; font-size: 12.9px;" x="629.743" y="143.566"> </text>
  <text style="white-space: pre; fill: rgb(51, 51, 51); font-family: Arial, sans-serif; font-size: 12.9px;" x="486.855" y="75.216"> </text>
  <text style="white-space: pre; fill: rgb(51, 51, 51); font-family: Arial, sans-serif; font-size: 12.9px;" x="617.55" y="65.518"> </text>
  <text style="white-space: pre; fill: rgb(51, 51, 51); font-family: Arial, sans-serif; font-size: 12.9px;" x="514.564" y="79.835"> </text>
  <text style="white-space: pre; fill: rgb(51, 51, 51); font-family: Arial, sans-serif; font-size: 12.9px;" x="592.612" y="69.675"> </text>
  <text style="white-space: pre; fill: rgb(51, 51, 51); font-family: Arial, sans-serif; font-size: 12.9px;" x="513.178" y="70.598"> </text>
  <text style="fill: rgb(102, 153, 204); font-family: &quot;Tw Cen MT&quot;; font-size: 34.8235px; letter-spacing: 0.5px; paint-order: stroke; stroke: rgb(102, 153, 204); white-space: pre;" transform="matrix(0.50037, 0, 0, 0.918919, 205.897525, 48.374966)" x="309.693" y="78.62" dx="162.441" dy="-39.201"> </text>
  <path stroke="rgb(51, 187, 238)" stroke-width="2px" d="M 275.294 104.489 L 274.113 97.402 L 273.656 96.555 L 281.812 132.683 L 282.978 142.825 L 284.142 128.586 L 285.308 139.228 L 286.473 140.231 L 287.639 148.972 L 288.804 151.693 L 289.969 145.643 L 291.134 155.626 L 292.299 153.375 L 293.464 157.324 L 294.629 159.811 L 295.795 154.296 L 296.96 159.499 L 298.126 155.269 L 299.29 158.882 L 300.456 163.931 L 301.621 171.049 L 302.786 170.671 L 303.951 168.944 L 305.116 170.076 L 306.281 175.375 L 307.448 170.151 L 308.612 175.439 L 309.778 180.505 L 310.942 181.113 L 312.108 184.932 L 313.273 187.914 L 314.439 188.663 L 315.603 188.409 L 316.769 190.241 L 317.934 191.473 L 319.1 194.489 L 320.265 196.364 L 321.43 195.587 L 322.595 196.976 L 323.76 197.048 L 324.925 197.161 L 326.091 196.523 L 327.256 198.122 L 328.421 199.775 L 329.586 201.528 L 330.751 199.887 L 331.917 202.878 L 333.082 200.197 L 334.247 199.913 L 335.412 200.701 L 336.577 201.33 L 337.743 202.858 L 338.909 204.669 L 340.073 206.659 L 341.239 207.896 L 342.403 208.312 L 343.569 208.406 L 344.734 209.073 L 345.899 211.369 L 347.064 210.699 L 348.23 209.589 L 349.395 212.508 L 350.561 212.502 L 351.725 213.033 L 352.891 214.626 L 354.055 216.126 L 355.221 217.081 L 356.386 218.396 L 357.552 218.156 L 358.717 218.632 L 359.883 221.075 L 361.047 222.581 L 362.213 222.923 L 363.377 223.927 L 364.543 224.387 L 365.708 225.25 L 366.873 225.256 L 368.038 223.752 L 369.204 224.029 L 370.369 224.936 L 371.534 225.731 L 372.699 226.419 L 373.864 226.147 L 375.029 226.546 L 376.194 224.897 L 377.36 225.283 L 378.525 225.99 L 379.691 225.127 L 380.856 223.047 L 382.021 221.135 L 383.186 221.494 L 384.352 218.363 L 385.516 219.327 L 386.682 218.542 L 387.847 219.472 L 389.013 221.154 L 390.178 221.794 L 391.343 222.578 L 392.508 222.644 L 393.673 223.285 L 394.838 224.288 L 396.004 224.639 L 397.168 225.744 L 398.334 227.089 L 399.5 228.049 L 400.665 229.027 L 401.83 230.557 L 402.995 231.076 L 404.16 232.205 L 405.326 232.313 L 406.49 233.496 L 407.656 234.538 L 408.821 235.218 L 409.986 234.245 L 411.152 234.469 L 412.316 234.384 L 413.482 233.367 L 414.646 234.384 L 415.812 234.84 L 416.977 235.82 L 418.143 235.715 L 419.308 236.044 L 420.473 236.679 L 421.638 237.25 L 422.804 237.4 L 423.969 238.26 L 425.134 237.647 L 426.299 236.868 L 427.464 237.668 L 428.629 237.805 L 429.796 239.107 L 430.96 239.79 L 432.126 240.131 L 433.29 240.511 L 434.456 241.688 L 435.621 241.725 L 436.786 242.907 L 437.951 244.015 L 439.117 243.93 L 440.282 244.545 L 441.448 244.597 L 442.612 244.906 L 443.778 245.645 L 444.943 246.59 L 446.108 246.867 L 447.273 246.055 L 448.438 246.339 L 449.604 245.804 L 450.769 246.052 L 451.934 245.485 L 453.099 246.337 L 454.264 245.082 L 455.429 245.772 L 456.595 246.816 L 457.759 246.871 L 458.925 246.672 L 460.09 247.119 L 461.256 247.262 L 462.421 247.157 L 463.587 247.408 L 464.751 245.538 L 465.917 245.813 L 467.081 245.81 L 468.247 245.707 L 469.412 245.082 L 470.578 245.234 L 471.743 244.814 L 472.908 244.77 L 474.073 244.565 L 475.239 244.059 L 476.404 243.936 L 477.569 244.235 L 478.734 244.492 L 479.9 244.705 L 481.065 244.834 L 482.23 245.441 L 483.395 245.498 L 484.56 245.758 L 485.725 246.113 L 486.891 246.846 L 488.056 246.874 L 489.221 247.494 L 490.387 247.093 L 491.551 247.585 L 492.717 247.422 L 493.882 247.589 L 495.047 244.56 L 496.212 244.451 L 497.377 244.625 L 498.542 245.367 L 499.708 244.487 L 500.873 244.476 L 502.039 244.224 L 503.204 244.712 L 504.369 245.028 L 505.534 244.358 L 506.699 244.39 L 507.864 244.066 L 509.03 244.294 L 510.195 244.28 L 511.361 244.653 L 512.525 245.041 L 513.691 245.643 L 514.856 245.959 L 516.021 245.913 L 517.186 246.553 L 518.351 247.155 L 519.516 246.619 L 520.682 246.951 L 521.848 246.954 L 523.013 247.576 L 524.178 247.027 L 525.343 247.863 L 526.508 248.31 L 527.673 248.747 L 528.838 248.939 L 530.003 249.649 L 531.169 249.586 L 532.334 249.867 L 533.5 250.166 L 534.664 250.208 L 535.83 249.474 L 536.994 249.328 L 538.16 248.932 L 539.325 249.5 L 540.491 249.917 L 541.656 250.171 L 542.822 250.151 L 543.986 250.05 L 545.152 249.215 L 546.316 249.343 L 547.482 249.069 L 548.647 249.556 L 549.812 249.812 L 550.977 250.271 L 552.143 250.574 L 553.308 250.719 L 554.474 251.064 L 555.638 251.295 L 556.804 251.4 L 557.968 251.275 L 559.134 251.483 L 560.299 251.573 L 561.465 251.715 L 562.63 251.783 L 563.795 252.133 L 564.96 252.564 L 566.125 252.665 L 567.291 252.955 L 568.456 253.455 L 569.621 253.822 L 570.786 254.113 L 571.952 254.403 L 573.117 254.035 L 574.282 253.829 L 575.447 253.892 L 576.612 254.408 L 577.777 254.61 L 578.943 254.967 L 580.108 254.507 L 581.273 253.694 L 582.438 254.185 L 583.604 254.331 L 584.769 254.419 L 585.935 254.779 L 587.099 254.825 L 588.265 254.963 L 589.429 255.122 L 590.595 254.973 L 591.76 255.213 L 592.926 255.638 L 594.091 255.952 L 595.256 256.048 L 596.421 256.264 L 597.587 256.663 L 598.751 256.62 L 599.917 256.265 L 601.082 256.278 L 602.247 256.3 L 603.413 256.371 L 604.578 256.766 L 605.743 256.768 L 606.908 257.207 L 608.073 257.245 L 609.238 256.467 L 610.403 256.348 L 611.568 256.788 L 612.735 256.861 L 613.899 256.393 L 615.065 256.261 L 616.229 256.411 L 617.395 256.612 L 618.56 256.99 L 619.726 257.374 L 620.89 257.614 L 622.056 257.61 L 623.221 257.639 L 624.387 257.837 L 625.552 258.145 L 626.717 256.79 L 627.882 257.005 L 629.047 257.565 L 630.212 257.277 L 631.378 257.29 L 632.543 257.597 L 633.709 257.583 L 634.873 257.859 L 636.039 257.742 L 637.204 257.914 L 638.369 257.843 L 639.534 258.221 L 640.699 258.128 L 641.864 257.972 L 643.03 257.364 L 644.195 257.378 L 645.36 257.539 L 646.526 257.355 L 647.69 257.606 L 648.856 257.777 L 650.02 257.959 L 651.186 257.526 L 652.351 257.604 L 653.517 257.848 L 654.682 257.956 L 655.847 258.164 L 657.012 258.317 L 658.178 258.148 L 659.342 257.311 L 660.508 257.513 L 661.672 257.669 L 662.839 257.67 L 664.004 257.139 L 665.17 257.103 L 666.334 257.417 L 667.5 257.237 L 668.664 257.561 L 669.83 257.468 L 670.995 257.069 L 672.16 257.311 L 673.325 257.743 L 674.491 257.742 L 675.656 257.477 L 676.822 257.558 L 677.986 257.702 L 679.152 257.994 L 680.316 258.291 L 681.482 258.569 L 682.647 258.128 L 683.812 257.547 L 684.978 257.703 L 686.143 257.779 L 687.308 257.519 L 688.473 257.74 L 689.639 257.91 L 690.803 257.91 L 691.969 257.678 L 693.134 257.839 L 694.3 258.042 L 695.465 257.712 L 696.63 257.776 L 697.795 257.787 L 698.96 257.935 L 700.125 257.912 L 701.291 257.942 L 702.455 257.926 L 703.621 257.85 L 704.787 257.951 L 705.952 257.536 L 707.117 256.25 L 708.282 256.486 L 709.447 256.563 L 710.613 256.597 L 711.777 256.791 L 712.943 256.976 L 714.108 256.956 L 715.274 257.298 L 716.439 256.698 L 717.604 256.92 L 718.769 256.861 L 719.934 257.195 L 721.099 257.306 L 722.265 257.479 L 723.43 257.107 L 724.595 257.324 L 725.76 257.566 L 726.925 257.164 L 728.091 257.27 L 729.256 257.444 L 730.421 257.485 L 731.586 257.245 L 732.751 256.529 L 733.916 256.168 L 735.083 256.298 L 736.247 256.122" style="fill: none;" fill="none" transform="matrix(0.999975, 0.007138, -0.007138, 0.999975, 1.280272, -3.5915)"/>
  <text style="fill: rgb(33, 33, 33); font-family: Roboto, sans-serif; font-size: 12px; font-weight: 200; text-anchor: end; white-space: pre;" transform="matrix(0.284591, 0, 0, 0.654117, 212.165375, 69.69735)" x="0" y="31.4167" dx="191.115" dy="7.714">9</text>
  <text style="white-space: pre; fill: rgb(51, 51, 51); font-family: Arial, sans-serif; font-size: 8.4px;" x="345.983" y="73.34"> </text>
  <text style="white-space: pre; fill: rgb(51, 51, 51); font-family: Arial, sans-serif; font-size: 17.2px;" x="891.296" y="219.346"> </text>
  <text style="white-space: pre; fill: rgb(51, 51, 51); font-family: Arial, sans-serif; font-size: 17.2px;" x="563.017" y="89.188"> </text>
  <text style="white-space: pre; fill: rgb(51, 51, 51); font-family: Arial, sans-serif; font-size: 17.2px;" x="986.458" y="200.313"> </text>
  <text style="white-space: pre; fill: rgb(51, 51, 51); font-family: Arial, sans-serif; font-size: 17.2px;" x="1021.454" y="258.025"> </text>
  <text style="white-space: pre; fill: rgb(51, 51, 51); font-family: Arial, sans-serif; font-size: 17.2px;" x="1014.086" y="361.783"> </text>
  <text style="white-space: pre; fill: rgb(51, 51, 51); font-family: Arial, sans-serif; font-size: 17.2px;" x="609.491" y="5.622"> </text>
  <text style="white-space: pre; fill: rgb(51, 51, 51); font-family: Arial, sans-serif; font-size: 17.2px;" x="702.198" y="18.515"> </text>
  <text style="white-space: pre; fill: rgb(51, 51, 51); font-family: Arial, sans-serif; font-size: 17.2px;" x="883.928" y="30.18">    </text>
  <path style="fill: rgb(216, 216, 216); stroke: rgb(51, 187, 238);" d="M 505.284 103.586 C 513.559 103.586 543.572 103.466 551.936 103.466"/>
  <text style="fill: rgb(51, 187, 238); font-family: Arial, sans-serif; font-size: 14px; white-space: pre;" x="556.311" y="107.341">Spade Image Generator Loss </text>
  <text style="fill: rgb(102, 153, 204); font-family: Arial, sans-serif; font-size: 9.4px; white-space: pre;" x="826.14" y="161.241"> </text>
  <path style="fill: rgb(0, 128, 0); stroke: rgb(0, 128, 0);" d="M 505.471 123.077 C 513.763 123.077 543.84 123.229 552.222 123.229"/>
  <text style="fill: rgb(0, 128, 0); font-family: Arial, sans-serif; font-size: 14px; white-space: pre;" x="555.086" y="126.173">Condition Generator Loss </text>
</svg>